<?xml version="1.0" encoding="UTF-8"?>
<!-- Created with Inkscape (http://www.inkscape.org/) -->
<svg width="6.6925mm" height="7.8285mm" version="1.1" viewBox="0 0 6.6924715 7.8284602" xmlns="http://www.w3.org/2000/svg" xmlns:cc="http://creativecommons.org/ns#" xmlns:dc="http://purl.org/dc/elements/1.1/" xmlns:rdf="http://www.w3.org/1999/02/22-rdf-syntax-ns#">
 <metadata>
  <rdf:RDF>
   <cc:Work rdf:about="">
    <dc:format>image/svg+xml</dc:format>
    <dc:type rdf:resource="http://purl.org/dc/dcmitype/StillImage"/>
    <dc:title/>
   </cc:Work>
  </rdf:RDF>
 </metadata>
 <g transform="translate(-100.98 -134.34)" fill="#00abee">
  <path d="m105.34 137.81c-0.19017-0.0179-0.35967 0.1254-0.37758 0.31971-0.0179 0.1943 0.12265 0.36656 0.31144 0.38447 0.19016 0.0179 0.35966-0.12678 0.37758-0.3197 0.0179-0.19431-0.12127-0.36657-0.31144-0.38448"/>
  <path d="m106.15 136.08c-0.14745-0.0689-0.32384-1e-3 -0.39274 0.14883-0.0689 0.1502-7e-3 0.32797 0.14056 0.39687 0.14745 0.0675 0.32384 0 0.39412-0.1502 0.0689-0.15021 5e-3 -0.32798-0.14194-0.3955"/>
  <path d="m104.02 135.87c-0.22875-0.11576-0.51263-0.0193-0.63114 0.21497-0.11989 0.23427-0.0289 0.51953 0.19982 0.63666 0.22875 0.11575 0.51263 0.0193 0.63114-0.21498 0.11851-0.23288 0.0289-0.51952-0.19982-0.63665"/>
  <path d="m106.65 136.38c-1e-3 0.0303 0.0152 0.073 0.0358 0.0965 0.0482 0.0538 0.1254 0.13919 0.12264 0.14608l-0.0772 0.16674c-4e-3 0.01-0.1185 3e-3 -0.18879-3e-3 -0.0317-1e-3 -0.0744 0.0138-0.0965 0.0344-0.0234 0.0221-0.0413 0.0648-0.0427 0.0951-3e-3 0.073-0.01 0.19017-0.0165 0.19292l-0.1695 0.0648c-0.01 3e-3 -0.0841-0.0827-0.12954-0.13781-0.0207-0.0234-0.0606-0.0441-0.091-0.0455-0.0303 0-0.073 0.0165-0.0951 0.0372-0.0537 0.051-0.13918 0.13092-0.14745 0.12679l-0.16399-0.0744c-7e-3 -4e-3 1e-3 -0.11989 7e-3 -0.19293 3e-3 -0.0303-0.0124-0.0744-0.0317-0.0965-0.0207-0.022-0.062-0.04-0.0937-0.0413-0.0717-1e-3 -0.18742-7e-3 -0.19017-0.0138l-0.0606-0.17088c-3e-3 -0.01 0.0841-0.0868 0.13781-0.13505 0.0234-0.0207 0.0441-0.062 0.0455-0.0923 1e-3 -0.0303-0.0152-0.073-0.0358-0.0965-0.0482-0.0524-0.1254-0.1378-0.12264-0.14607l0.0772-0.16674c4e-3 -8e-3 0.11713-3e-3 0.18879 3e-3 0.0317 1e-3 0.0744-0.0138 0.0965-0.0345s0.0413-0.0634 0.0427-0.0951c3e-3 -0.0717 8e-3 -0.19017 0.0179-0.19293l0.1695-0.0648c8e-3 -4e-3 0.0827 0.0827 0.12953 0.13643 0.0193 0.0234 0.0606 0.0441 0.0896 0.0455 0.0303 1e-3 0.073-0.0152 0.0965-0.0372 0.0524-0.0496 0.1378-0.13092 0.14607-0.12678l0.11162 0.051c0.0289 0.0138 0.051 0.0248 0.051 0.0248s4e-3 0.0248 3e-3 0.0565c-1e-3 0.0413-5e-3 0.0951-8e-3 0.13643-3e-3 0.0303 0.011 0.0744 0.0317 0.0965s0.062 0.0413 0.0937 0.0413c0.0716 3e-3 0.18741 7e-3 0.19016 0.0138l0.0606 0.17225c3e-3 8e-3 -0.0841 0.0854-0.13781 0.13367-0.0234 0.0207-0.0441 0.062-0.0455 0.0923m-0.61736 2.0602c-0.0303 8e-3 -0.0661 0.0372-0.0813 0.0661l-8e-3 0.0152c-0.0138 0.0275-0.0179 0.0744-8e-3 0.10473 0.0262 0.0799 0.0689 0.22324 0.0606 0.23013l-0.1626 0.13643c-8e-3 7e-3 -0.13367-0.0634-0.20533-0.10611-0.0276-0.0152-0.073-0.0207-0.10335-0.011l-0.0152 4e-3c-0.0289 0.01-0.0648 0.04-0.0799 0.0675-0.0372 0.0758-0.10611 0.20808-0.11714 0.20808l-0.21084-0.0193c-0.01-1e-3 -0.0482-0.14469-0.0703-0.22599-8e-3 -0.0303-0.0372-0.0662-0.0648-0.0813l-0.0124-7e-3c-0.0276-0.0152-0.0744-0.0193-0.10473-8e-3 -0.0786 0.0248-0.21911 0.0689-0.22462 0.062l-0.13505-0.16673c-7e-3 -8e-3 0.0648-0.13919 0.10473-0.21222 0.0152-0.0262 0.0207-0.073 0.0124-0.10336l-5e-3 -0.0152c-8e-3 -0.0303-0.0386-0.0661-0.0661-0.0813-0.0744-0.0386-0.20257-0.10749-0.20119-0.11851l0.0193-0.21635c1e-3 -0.01 0.14056-0.0496 0.21911-0.073 0.0303-8e-3 0.0675-0.0372 0.0813-0.0648l7e-3 -0.0152c0.0152-0.0275 0.0193-0.0744 0.01-0.10473-0.0248-0.0799-0.0675-0.22462-0.0593-0.23013l0.16261-0.14056c8e-3 -6e-3 0.13367 0.0661 0.20532 0.10749 0.0276 0.0152 0.073 0.0207 0.10336 0.011l0.0138-4e-3c0.0303-8e-3 0.0648-0.04 0.0799-0.0675 0.0386-0.0758 0.10611-0.20808 0.11713-0.2067l0.15434 0.0138c0.0303 3e-3 0.0565 6e-3 0.0565 6e-3 -1e-3 1e-3 0.011 0.022 0.022 0.0524 0.0152 0.0496 0.0358 0.12402 0.0496 0.17363 8e-3 0.0303 0.0358 0.0675 0.0634 0.0827l0.0138 7e-3c0.0275 0.0138 0.073 0.0179 0.10335 8e-3 0.0786-0.0262 0.21911-0.0703 0.226-0.062l0.13505 0.16674c7e-3 7e-3 -0.0648 0.1378-0.10611 0.21084-0.0152 0.0275-0.0207 0.073-0.0124 0.10335l5e-3 0.0165c0.01 0.0289 0.0386 0.0661 0.0661 0.0799 0.0744 0.04 0.20395 0.10887 0.20257 0.11989l-0.0207 0.21498c0 0.011-0.13919 0.051-0.21911 0.073m-1.7487-3.3872 0.20395 0.10336c0.0276 0.0138 0.051 0.0262 0.051 0.0262 0 1e-3 4e-3 0.0262 3e-3 0.0579-4e-3 0.0744-0.0193 0.20671-0.0289 0.28112-3e-3 0.0317 0.011 0.0758 0.0303 0.1006l0.0386 0.0455c0.0207 0.0234 0.062 0.0441 0.0923 0.0455 0.10749 7e-3 0.32936 0.0207 0.33487 0.0345l0.0868 0.27698c4e-3 0.0138-0.16949 0.1571-0.25356 0.22462-0.0234 0.0193-0.0455 0.0606-0.0482 0.0909l-5e-3 0.062c-3e-3 0.0317 0.0124 0.0758 0.0317 0.1006 0.0703 0.0799 0.2136 0.25081 0.20671 0.26321l-0.13091 0.26045c-7e-3 0.0138-0.226-8e-3 -0.33211-0.0193-0.0317-3e-3 -0.0758 0.011-0.0992 0.0317l-0.0469 0.0413c-0.0234 0.0207-0.0441 0.062-0.0468 0.0937-8e-3 0.10886-0.0262 0.33348-0.04 0.33899l-0.27285 0.091c-0.0152 4e-3 -0.15158-0.16812-0.21773-0.25218-0.0193-0.0234-0.0593-0.0455-0.091-0.0482l-0.0593-4e-3c-0.0317-3e-3 -0.0758 0.0124-0.0992 0.0331-0.0799 0.073-0.25081 0.22187-0.26459 0.21635l-0.25494-0.12953c-0.0138-7e-3 0.0124-0.23014 0.0248-0.33763 4e-3 -0.0317-0.01-0.0758-0.0289-0.0992l-0.0386-0.0455c-0.0207-0.0234-0.062-0.0441-0.0937-0.0469-0.10748-6e-3 -0.32935-0.0207-0.33348-0.0345l-0.0868-0.2756c-4e-3 -0.0152 0.1695-0.15848 0.25218-0.226 0.0248-0.0193 0.0469-0.0606 0.0496-0.0923l6e-3 -0.0606c3e-3 -0.0317-0.0124-0.0758-0.0317-0.0992-0.0703-0.0813-0.21498-0.25081-0.20809-0.26459l0.13229-0.26045c7e-3 -0.0138 0.226 8e-3 0.33211 0.0193 0.0303 3e-3 0.0758-0.011 0.0992-0.0317l0.0455-0.04c0.0248-0.0207 0.0455-0.062 0.0469-0.0937 8e-3 -0.10887 0.0262-0.33486 0.0413-0.339l0.27423-0.0937c0.0138-5e-3 0.15159 0.16675 0.21773 0.25081 0.0193 0.0248 0.0593 0.0469 0.0909 0.0496l0.0579 4e-3c0.0317 1e-3 0.0758-0.0138 0.0992-0.0345 0.0813-0.0717 0.25218-0.22049 0.26458-0.21498m1.6908-0.45199s-0.0248-8e-3 -0.0537-0.0193c-0.0606-0.0207-0.12264-0.0413-0.18466-0.0606-0.11299-0.0317-0.23013-0.0551-0.35002-0.073-0.0317-3e-3 -0.0675-0.0138-0.0813-0.022-0.0152-8e-3 -0.051-0.0193-0.0827-0.0234-0.23565-0.0413-0.4768-0.062-0.72347-0.062-0.46578 0-0.91502 0.0744-1.3353 0.21222-0.73725 0.23841-1.3312 0.79375-1.6261 1.5034-0.0124 0.0289-0.0262 0.0772-0.0317 0.10887-0.0262 0.14607-0.04 0.29628-0.04 0.44924 0 0.10473 5e-3 0.2067 0.0179 0.3073 1e-3 0.0138 3e-3 0.0276 5e-3 0.04 3e-3 0.0221 0.011 0.0648 0.0234 0.0937 0.0166 0.0372 0.04 0.0689 0.0675 0.0978 0.01 8e-3 0.0179 0.0152 0.0262 0.0234 0.0592 0.0606 0.10059 0.13918 0.11299 0.22737 4e-3 0.0207 6e-3 0.0413 6e-3 0.062 0 0.0441-7e-3 0.0868-0.0207 0.12816-0.01 0.0289-0.0207 0.0524-0.0193 0.0537 0 1e-3 -4e-3 7e-3 -8e-3 0.0152l-8e-3 0.0124c-0.01 0.0152-0.0207 0.0303-0.0317 0.0455l-0.15297 0.22325-0.42305 0.61873c-0.18466 0.27699-0.0634 0.50299 0.27009 0.50299h0.22876c0.04 0 0.073 0.0317 0.073 0.0717 0 0.0345-0.0248 0.0634-0.0579 0.0703-0.1006 0.0165-0.17777 0.10472-0.17777 0.21083 0 0.11714 0.0965 0.2136 0.21359 0.2136 6e-3 0 0.0124-1e-3 0.0179-1e-3 0.01 0 0.0193-3e-3 0.0207-3e-3 3e-3 -1e-3 6e-3 -1e-3 6e-3 -1e-3h1e-3c0.0165 0 0.0303 0.0152 0.0303 0.0317 0 0.0152-0.011 0.0275-0.0248 0.0317h-3e-3c-1e-3 0-0.0289 3e-3 -0.0579 0.0138-0.0799 0.0331-0.13504 0.11162-0.13504 0.20394 0 0.12127 0.0951 0.21911 0.21359 0.21911 6e-3 0 0.011-1e-3 0.0165-1e-3 7e-3 0 0.0124-1e-3 0.0193-1e-3 0.10198 0 0.18328 0.0827 0.18328 0.18466 0 0.0482-0.0179 0.0923-0.0482 0.12403-3e-3 3e-3 -8e-3 0.011-0.0124 0.0165-7e-3 0.01-0.0248 0.0386-0.0345 0.0689-0.0221 0.0648-0.0193 0.11576-0.0193 0.19844 0 0.17914 0.12403 0.32935 0.29077 0.36931 0.0152 3e-3 0.0317 6e-3 0.0469 8e-3 0.10198 0.0165 0.20671 0.0262 0.31282 0.0262 0.19981 0 0.33073-0.0303 0.51125-0.0882 0.01-3e-3 0.0207-7e-3 0.0303-0.01 0.0179-4e-3 0.0372-5e-3 0.0565-5e-3 0.12954 0 0.23565 0.10474 0.23565 0.23565v0.45751c0 0.25218 0.21635 0.45751 0.48369 0.45751h2.1456c0.26596 0 0.47267-0.21497 0.46027-0.48231l-0.0813-1.6854c0-0.30316 0.11438-0.58015 0.30041-0.78961 0.0648-0.073 0.13919-0.13643 0.22049-0.19155 0.0262-0.0179 0.0661-0.0482 0.0882-0.0717 0.48232-0.47818 0.78135-1.1424 0.78135-1.8769 0-1.1052-0.67661-2.0519-1.6385-2.4474-0.0289-0.0124-0.0524-0.0221-0.0537-0.0221"/>
 </g>
</svg>
