<?xml version="1.0" encoding="UTF-8"?>
<!-- Created with Inkscape (http://www.inkscape.org/) -->
<svg width="559.33" height="115.5" version="1.1" viewBox="0 0 559.33 115.5" xml:space="preserve" xmlns="http://www.w3.org/2000/svg" xmlns:cc="http://creativecommons.org/ns#" xmlns:dc="http://purl.org/dc/elements/1.1/" xmlns:rdf="http://www.w3.org/1999/02/22-rdf-syntax-ns#"><metadata><rdf:RDF><cc:Work rdf:about=""><dc:format>image/svg+xml</dc:format><dc:type rdf:resource="http://purl.org/dc/dcmitype/StillImage"/><dc:title/></cc:Work></rdf:RDF></metadata><g transform="matrix(1.3333 0 0 -1.3333 0 115.5)"><g transform="scale(.1)"><path d="m3663.8 246.39 129.76 130.53c5.89 6.473 7.41 15.508 3.95 23.535-3.56 8.008-11.38 13.203-19.94 13.203-5.68 0-11.14-2.316-15.35-6.504l-128.69-129.89-130.98 131.75c-4.17 4.187-9.59 6.453-15.27 6.453-8.58 0-16.58-5.41-19.96-13.504-3.36-8.242-1.48-17.316 4.85-23.633l130.71-131.93-128.78-129.57c-6.41-6.386-8.26-15.461-4.9-23.73 3.37-8.0781 11.38-13.476 19.96-13.476 5.63 0 11.09 2.293 15.26 6.4844l129.11 129.89 130.61-120.81c4.15-4.1914 9.57-6.5039 15.29-6.5039 8.59 0 16.4 5.1953 19.93 13.203 3.5 7.988 1.88 17.137-4.43 24.023l-131.13 120.49" fill="#231f20"/><path d="m3487.2 405.46c-4.58 0-8.9-2.957-10.73-7.359-1.81-4.434-0.81-9.207 2.68-12.7l137.74-139.02-135.78-136.61c-3.57-3.555-4.57-8.375-2.73-12.918 2.94-7.0235 13.2-9.418 18.87-3.6993l135.91 136.73 137.68-127.36c6.55-6.5433 16.06-3.9183 19.29 3.402 1.91 4.363 0.93 9.32-2.66 13.227l-138.17 126.92 137.09 137.91c2.97 3.273 3.77 8.074 1.86 12.519-3.19 7.157-13.18 9.422-19.06 3.575l-135.73-137-138.08 138.89c-2.24 2.258-5.15 3.504-8.18 3.504zm1.88-335.85c-12.55 0-24.28 7.8867-29.19 19.617-4.94 12.164-2.22 25.41 7.07 34.668l121.75 122.5-123.72 124.89c-9.21 9.188-11.92 22.403-7.01 34.445 4.93 11.833 16.67 19.731 29.22 19.731 8.39 0 16.33-3.34 22.36-9.398l123.88-124.61 121.6 122.74c6.15 6.121 14.1 9.468 22.45 9.468 12.5 0 23.91-7.515 29.08-19.148 5.08-11.77 2.89-24.887-5.69-34.32l-122.73-123.47 123.47-113.45c9.56-10.379 11.94-23.707 6.82-35.399-5.15-11.668-16.56-19.191-29.09-19.191-8.4 0-16.35 3.3594-22.39 9.4648l-123.22 113.96-122.31-123.05c-6.05-6.086-13.99-9.4336-22.35-9.4336" fill="#231f20"/><g fill="#30799a"><path d="m4026.1 333.66c1.13-46.66 39.83-83.554 86.52-82.441 46.62 1.121 83.49 39.863 82.36 86.543-1.12 46.601-39.79 83.504-86.5 82.383-46.64-1.114-83.5-39.903-82.38-86.485"/><path d="m3680.9 739.57c1.15-46.636 39.84-83.574 86.48-82.414 46.61 1.11 83.54 39.817 82.42 86.536-1.1 46.593-39.89 83.464-86.5 82.339-46.66-1.113-83.56-39.859-82.4-86.461"/><path d="m3476.6 799.25c0.89-36.102 30.91-64.649 67.01-63.774 36.08 0.864 64.68 30.86 63.8 66.958-0.93 36.101-30.89 64.617-66.96 63.769-36.13-0.863-64.69-30.859-63.85-66.953"/><path d="m4024.8 118.52c0.81-33.047 28.23-59.239 61.32-58.418 33.08 0.7812 59.27 28.262 58.44 61.328-0.81 33.047-28.28 59.207-61.36 58.398-33.03-0.801-59.17-28.203-58.4-61.308"/><path d="m3892.7 34.426c0.44-19.48 16.67-34.902 36.14-34.414 19.54 0.46094 34.94 16.652 34.46 36.164-0.49 19.473-16.66 34.902-36.18 34.461-19.49-0.4961-34.95-16.688-34.42-36.211"/><path d="m3362.7 700.68c0.51-21.477 18.31-38.442 39.79-37.918 21.43 0.519 38.42 18.359 37.91 39.761-0.53 21.477-18.34 38.469-39.79 37.946-21.43-0.555-38.47-18.324-37.91-39.789"/><path d="m3358.2 547.68c0.37-16.84 14.33-30.063 31.04-29.68 16.84 0.461 30.04 14.379 29.71 31.133-0.42 16.758-14.35 30.059-31.16 29.609-16.75-0.39-30.01-14.312-29.59-31.062"/><path d="m3871.7 565.12c1.45-58.305 49.87-104.45 108.17-103.06 58.29 1.426 104.42 49.891 103.03 108.11-1.4 58.367-49.87 104.49-108.19 103.06-58.29-1.394-104.36-49.82-103.01-108.11"/></g><path d="m4084.6 60.082c-32.41 0-59.01 25.895-59.81 58.438-0.01 0.453-0.02 0.902-0.02 1.355-0.04 32.492 25.84 59.16 58.42 59.953 0.5 0.012 0.99 0.016 1.49 0.016 32.42 0 59.08-25.867 59.87-58.414 0.02-0.52 0.02-1.035 0.02-1.547-0.01-32.371-25.89-59.012-58.46-59.781-0.51-0.0157-1.01-0.0196-1.51-0.0196" fill="#286683"/><path d="m3928 0c-19.07 0-34.81 15.246-35.24 34.426-0.01 0.3437-0.01 0.6875-0.01 1.0273 0.03 19.059 15.28 34.695 34.43 35.184 0.28 0.0078 0.55 0.0078 0.82 0.0078 19.14 0 34.87-15.27 35.36-34.469 0.01-0.3047 0.02-0.6094 0.02-0.9141-0.02-19.102-15.24-34.797-34.48-35.25-0.3-0.0078126-0.6-0.011719-0.9-0.011719" fill="#1f4f66"/><path d="m3401.5 662.75c-21.04 0-38.32 16.773-38.82 37.93-0.01 0.336-0.01 0.672-0.01 1.004-0.01 21.011 16.82 38.238 37.92 38.785 0.32 8e-3 0.64 0.011 0.96 0.011 21.02 0 38.31-16.8 38.83-37.957 0-0.335 0.01-0.668 0.01-1.003-0.03-20.954-16.82-38.247-37.92-38.758-0.33-8e-3 -0.65-0.012-0.97-0.012" fill="#286683"/><path d="m3388.5 517.99c-16.4 0-29.98 13.086-30.34 29.688-0.01 0.262-0.01 0.519-0.01 0.781 0 16.402 13.11 29.895 29.6 30.281 0.27 8e-3 0.55 0.012 0.82 0.012 16.45 0 29.93-13.137 30.34-29.621 0-0.195 0.01-0.391 0.01-0.586 0.01-16.492-13.08-30.094-29.72-30.547-0.23-8e-3 -0.47-8e-3 -0.7-8e-3" fill="#1f4f66"/><g fill="#231f20"><path d="m266.56 123.73c-38.836 0-76.829-0.097-114.82-0.214l-10.144-0.032c-29.246-0.078-58.559-0.144-88.297-0.175v247.92h212.82c16.953 0 34.234-17.48 34.234-34.648v-179.49c0-16.856-16.738-33.36-33.796-33.36zm-0.438 290.82h-228.67c-15.398 0-27.453-12.246-27.453-27.93v-278.7c0-15.652 12.055-27.899 27.453-27.899h229.11c40.586 0 77.519 36.727 77.519 77.071v179.93c0 39.836-37.898 77.532-77.957 77.532"/><path d="m63.301 361.23v-227.91c26.309 0.031 52.32 0.098 78.269 0.164l10.145 0.032c37.996 0.117 76 0.214 114.84 0.214 11.566 0 23.796 12.004 23.796 23.36v179.49c0 11.746-12.679 24.648-24.234 24.648zm-20-247.93v267.93h222.82c22.324 0 44.234-22.117 44.234-44.648v-179.49c0-22.285-21.285-43.36-43.796-43.36-38.825 0-76.809-0.097-114.79-0.214l-10.148-0.032c-29.254-0.078-58.574-0.144-88.316-0.175zm-5.8477 291.25c-9.9531 0-17.453-7.711-17.453-17.93v-278.7c0-10.203 7.5-17.899 17.453-17.899h229.11c35.336 0 67.519 31.965 67.519 67.071v179.93c0 34.082-33.656 67.532-67.957 67.532zm229.11-334.53h-229.11c-21.004 0-37.453 16.645-37.453 37.899v278.7c0 21.27 16.449 37.93 37.453 37.93h228.67c45.211 0 87.957-42.539 87.957-87.532v-179.93c0-45.574-41.715-87.071-87.519-87.071"/><path d="m823.21 336.59v-79.113h-249.67v79.113c0 21.375 20.664 34.648 39.852 34.648h169.97c19.153 0 39.848-13.273 39.848-34.648zm-39.394 77.969h-170.84c-45.633 0-82.699-35.02-82.699-77.969v-236.88c0-12.004 9.394-21.438 21.41-21.438 12.027 0 21.855 9.6094 21.855 21.438v115.75h249.67v-115.75c0-11.828 9.797-21.438 21.856-21.438 11.812 0 21.449 9.6094 21.449 21.438v236.88c0 48.125-42.957 77.969-82.699 77.969"/><path d="m583.54 267.47h229.67v69.113c0 15.223-15.492 24.648-29.848 24.648h-169.97c-14.36 0-29.856-9.425-29.856-24.648zm249.67-20h-269.67v89.113c0 27.578 25.879 44.648 49.856 44.648h169.97c23.977 0 49.848-17.07 49.848-44.648zm-269.67-22.012h269.67v-125.75c0-6.3046 5.316-11.438 11.856-11.438 6.316 0 11.453 5.1329 11.453 11.438v236.88c0 41.98-37.743 67.969-72.703 67.969h-170.84c-40.086 0-72.699-30.489-72.699-67.969v-236.88c0-6.5195 4.906-11.438 11.41-11.438 6.539 0 11.855 5.1329 11.855 11.438zm281.53-157.19c-17.563 0-31.856 14.102-31.856 31.438v105.75h-229.67v-105.75c0-17.336-14.293-31.438-31.855-31.438-17.614 0-31.41 13.809-31.41 31.438v236.88c0 48.504 41.585 87.969 92.699 87.969h170.84c44.582 0 92.703-33.633 92.703-87.969v-236.88c0-17.336-14.11-31.438-31.453-31.438"/><path d="m1289.7 414.56h-245.94c-12.18 0-21.73-9.524-21.73-21.641 0-12.187 9.55-21.68 21.73-21.68h101.53c-0.02-33.925-0.12-80.781-0.21-127.64l-0.05-34.7c-0.09-42.546-0.15-82.332-0.15-109.19 0-12.004 9.6-21.438 21.86-21.438s21.86 9.4336 21.86 21.438v271.52h101.1c12.18 0 21.74 9.493 21.74 21.68 0 12.117-9.56 21.641-21.74 21.641"/><path d="m1043.7 404.56c-6.69 0-11.73-5.008-11.73-11.641 0-6.66 5.04-11.68 11.73-11.68h111.54l-0.01-10.007c-0.01-27.09-0.08-62.426-0.15-99.422l-0.11-62.922c-0.09-42.547-0.15-82.324-0.15-109.17 0-6.5195 5.1-11.438 11.86-11.438s11.86 4.918 11.86 11.438v281.52h111.1c6.69 0 11.74 5.02 11.74 11.68 0 6.633-5.05 11.641-11.74 11.641zm122.98-336.28c-17.86 0-31.86 13.809-31.86 31.438 0 26.859 0.06 66.652 0.15 109.21l0.11 62.926c0.06 32.586 0.12 63.883 0.14 89.39h-91.52c-17.79 0-31.73 13.914-31.73 31.68 0 17.742 13.94 31.641 31.73 31.641h245.94c17.8 0 31.74-13.899 31.74-31.641 0-17.766-13.94-31.68-31.74-31.68h-91.1v-261.52c0-17.629-13.99-31.438-31.86-31.438"/><path d="m1769.8 336.59v-79.113h-249.64v79.113c0 21.375 20.67 34.648 39.81 34.648h169.99c19.17 0 39.84-13.273 39.84-34.648zm-39.38 77.969h-170.86c-45.6 0-82.69-35.02-82.69-77.969v-236.88c0-12.004 9.39-21.438 21.41-21.438 12.05 0 21.88 9.6094 21.88 21.438v115.75h249.64v-115.75c0-11.828 9.8-21.438 21.86-21.438 11.81 0 21.44 9.6094 21.44 21.438v236.88c0 48.125-42.91 77.969-82.68 77.969"/><path d="m1530.2 267.47h229.64v69.113c0 15.223-15.49 24.648-29.84 24.648h-169.99c-14.34 0-29.81-9.425-29.81-24.648zm249.64-20h-269.64v89.113c0 27.578 25.86 44.648 49.81 44.648h169.99c23.97 0 49.84-17.07 49.84-44.648zm-269.64-22.012h269.64v-125.75c0-6.3046 5.32-11.438 11.86-11.438 6.3 0 11.44 5.1329 11.44 11.438v236.88c0 41.98-37.73 67.969-72.68 67.969h-170.86c-40.09 0-72.69-30.489-72.69-67.969v-236.88c0-6.5195 4.9-11.438 11.41-11.438 6.55 0 11.88 5.1329 11.88 11.438zm281.5-157.19c-17.57 0-31.86 14.102-31.86 31.438v105.75h-229.64v-105.75c0-17.336-14.3-31.438-31.88-31.438-17.62 0-31.41 13.809-31.41 31.438v236.88c0 48.504 41.58 87.969 92.69 87.969h170.86c44.57 0 92.68-33.633 92.68-87.969v-236.88c0-17.336-14.11-31.438-31.44-31.438"/><path d="m2262.4 268.25h-187.25c-23.14 0-33.67 27.07-33.67 52.168 0 24.473 10.25 50.82 32.81 50.82h206.24c12.19 0 21.75 9.493 21.75 21.68 0 12.117-9.56 21.641-21.75 21.641h-206.24c-49.96 0-76.13-47.539-76.13-94.492 0-45.801 24.24-95.098 77.44-95.098h184.55c23.58-0.176 34.26-27.129 34.16-52.082-0.07-23.875-10.36-49.57-32.76-49.57h-237.29c-12.03 0-21.43-9.52-21.43-21.649 0-12.148 9.4-21.641 21.43-21.641h236.84c52.76 0 76.77 48.946 76.77 94.434 0 46.602-25.91 93.789-75.47 93.789"/><path d="m2024.3 113.31c-6.52 0-11.43-5.008-11.43-11.649 0-6.6367 4.91-11.641 11.43-11.641h236.84c45.87 0 66.77 43.77 66.77 84.434 0 41.633-22.49 83.789-65.47 83.789h-187.25c-30 0-43.67 32.227-43.67 62.168 0 29.293 13.4 60.82 42.81 60.82h206.24c6.7 0 11.75 5.02 11.75 11.68 0 6.633-5.05 11.641-11.75 11.641h-206.24c-43.41 0-66.13-42.508-66.13-84.492 0-40.989 21.11-85.098 67.43-85.098h184.56c30.53-0.231 44.28-32.36 44.16-62.121-0.08-28.668-13.5-59.531-42.76-59.531zm236.84-43.29h-236.84c-17.63 0-31.43 13.895-31.43 31.641s13.8 31.649 31.43 31.649h237.29c16.62 0 22.71 23.683 22.76 39.601 0.07 16.836-6.34 41.918-24.24 42.051h-184.48c-60.07 0-87.43 54.476-87.43 105.1 0 51.921 29.59 104.49 86.13 104.49h206.24c17.8 0 31.75-13.899 31.75-31.641 0-17.766-13.95-31.68-31.75-31.68h-206.24c-16.73 0-22.81-24.414-22.81-40.82 0-16.949 6.31-42.168 23.67-42.168h187.25c56.11 0 85.47-52.215 85.47-103.79 0-50.301-27.15-104.43-86.77-104.43"/><path d="m2760.6 414.56h-267.5c-12.22 0-21.79-9.524-21.79-21.641 0-12.187 9.57-21.68 21.79-21.68h123.12c-0.05-33.925-0.17-80.781-0.23-127.64-0.12-54.864-0.21-109.82-0.21-143.89 0-12.004 9.6-21.438 21.86-21.438 12.25 0 21.84 9.4336 21.84 21.438v271.52h101.12c12.19 0 21.75 9.493 21.75 21.68 0 12.117-9.56 21.641-21.75 21.641"/><path d="m2493.1 404.56c-6.72 0-11.79-5.008-11.79-11.641 0-6.66 5.07-11.68 11.79-11.68h133.13l-0.24-137.65c-0.12-54.863-0.21-109.82-0.21-143.87 0-6.5195 5.09-11.438 11.86-11.438 6.75 0 11.84 4.918 11.84 11.438v281.52h111.12c6.7 0 11.75 5.02 11.75 11.68 0 6.633-5.05 11.641-11.75 11.641zm144.54-336.28c-17.87 0-31.86 13.809-31.86 31.438 0 34.066 0.09 89.039 0.21 143.91l0.21 117.61h-113.1c-17.82 0-31.79 13.914-31.79 31.68 0 17.742 13.97 31.641 31.79 31.641h267.5c17.8 0 31.75-13.899 31.75-31.641 0-17.766-13.95-31.68-31.75-31.68h-91.12v-261.52c0-17.629-13.99-31.438-31.84-31.438"/><path d="m3240.7 336.59v-79.113h-249.64v79.113c0 21.375 20.68 34.648 39.81 34.648h170.02c19.15 0 39.81-13.273 39.81-34.648zm-39.4 77.969h-170.84c-45.61 0-82.7-35.02-82.7-77.969v-236.88c0-12.004 9.41-21.438 21.44-21.438 12.04 0 21.86 9.6094 21.86 21.438v115.75h249.64v-115.75c0-11.828 9.81-21.438 21.88-21.438 11.79 0 21.43 9.6094 21.43 21.438v236.88c0 48.125-42.94 77.969-82.71 77.969"/><path d="m3001 267.47h229.64v69.113c0 15.223-15.47 24.648-29.81 24.648h-170.02c-14.33 0-29.81-9.425-29.81-24.648zm249.64-20h-269.64v89.113c0 27.578 25.86 44.648 49.81 44.648h170.02c23.96 0 49.81-17.07 49.81-44.648zm-269.64-22.012h269.64v-125.75c0-6.3046 5.33-11.438 11.88-11.438 6.3 0 11.43 5.1329 11.43 11.438v236.88c0 41.98-37.74 67.969-72.71 67.969h-170.84c-40.08 0-72.7-30.489-72.7-67.969v-236.88c0-6.5195 4.91-11.438 11.44-11.438 6.54 0 11.86 5.1329 11.86 11.438zm281.52-157.19c-17.57 0-31.88 14.102-31.88 31.438v105.75h-229.64v-105.75c0-17.336-14.3-31.438-31.86-31.438-17.63 0-31.44 13.809-31.44 31.438v236.88c0 48.504 41.59 87.969 92.7 87.969h170.84c44.58 0 92.71-33.633 92.71-87.969v-236.88c0-17.336-14.1-31.438-31.43-31.438"/></g></g></g></svg>
