<?xml version="1.0" encoding="UTF-8"?>
<svg width="145.38" height="29.312" version="1.1" viewBox="0 0 145.38 29.312" xmlns="http://www.w3.org/2000/svg" xmlns:cc="http://creativecommons.org/ns#" xmlns:dc="http://purl.org/dc/elements/1.1/" xmlns:rdf="http://www.w3.org/1999/02/22-rdf-syntax-ns#">
 <metadata>
  <rdf:RDF>
   <cc:Work rdf:about="">
    <dc:format>image/svg+xml</dc:format>
    <dc:type rdf:resource="http://purl.org/dc/dcmitype/StillImage"/>
    <dc:title>Logo</dc:title>
   </cc:Work>
  </rdf:RDF>
 </metadata>
<!-- Generator: Sketch 42 (36781) - http://www.bohemiancoding.com/sketch -->
 <title>Logo</title>
 <desc>Created with Sketch.</desc>
 <g id="Design" transform="translate(0 5.9116e-5)" fill="#1ac1f8" fill-rule="evenodd">
  <g transform="translate(-567,-5945)" fill="#1ac1f8">
   <g id="Group" transform="translate(-80,5878)" fill="#1ac1f8">
    <g id="Logo" transform="translate(647,67)" fill="#1ac1f8">
     <path d="m10.792 10.001c6.6153 0 4.5989 7.4235-6.1088 6.8604 0-5.5123 4.2519-6.8604 6.1088-6.8604zm-6.0816 10.192c17.287 0 17.239-13.733 5.6605-13.733-6.4582 0-10.371 5.7023-10.371 11.406 0 5.7094 3.5625 11.406 9.8496 11.406 3.1917 0 6.7716-1.3656 8.5947-2.8175l-1.516-2.5692c-5.7158 4.2569-12.595 0.85274-12.239-3.6519z"/>
     <path d="m32.298 6.4596c-3.6519 0-6.0472 1.8666-6.8636 2.6182l-0.56495-1.6544c-0.057595-0.16818-0.21301-0.2811-0.38754-0.2811h-3.6913l0.94901 3.7429v17.967c0 0.23144 0.18378 0.41913 0.4104 0.41913h4.2623v-16.99c1.5432-2.1693 3.7764-2.3212 4.9153-2.3212 1.8977 0 4.0536 1.8491 4.0536 5.3727v13.519c0 0.23144 0.18378 0.41913 0.4104 0.41913h4.2464v-14.682c0-4.4089-2.0265-8.1302-7.74-8.1302"/>
     <path d="m50.101 9.6086h5.3612c0.20231 0 0.37451-0.15075 0.40548-0.35529l0.42082-2.7935h-6.1875v-6.4105l-3.1819 1.1164c-0.12735 0.047588-0.22343 0.15636-0.25672 0.29055l-1.2396 5.0036h-3.0621v3.1488h3.0621v13.563c0 7.6183 8.8824 6.4297 10.866 4.8439v-2.466h-3.5353c-1.586 0-2.6479-0.74841-2.6479-2.6425z"/>
     <path d="m66.738 25.594c-6.123 0-6.9638-15.721 1.272-15.721 2.6308 0 3.5793 0.79274 3.5793 0.79274v11.089c-1.4923 3.4142-3.4592 3.8396-4.8513 3.8396zm9.4982-17.186c-2.9301-1.2979-5.3369-1.9479-8.399-1.9479-3.0606 0-10.391 1.9609-10.391 11.406 0 9.4455 4.6143 11.406 8.8395 11.406 2.2158 0 4.6684-1.623 5.7627-2.8092 0.53369 1.3162 1.2769 2.8092 3.7127 2.8092 1.8537 0 3.1046-0.90329 3.1046-0.90329l-0.28276-2.6419c-1.1392 0-2.355-0.94674-2.355-3.6599z"/>
     <path d="m112.07 25.594c-6.1112 0-6.5904-15.721 1.2714-15.721 2.6308 0 3.5793 0.79274 3.5793 0.79274v11.089c-1.4923 3.4142-3.4592 3.8396-4.8507 3.8396zm9.5058-25.594-4.3445 1.0534c-0.18233 0.046701-0.31054 0.21429-0.31054 0.40642v5.4434c-1.1444-0.29174-2.3194-0.44337-3.7515-0.44337-3.0612 0-10.392 1.9609-10.392 11.406 0 9.4455 4.6142 11.406 8.8395 11.406 2.6826 0 4.6684-1.623 5.7624-2.8092 0.53398 1.3162 1.6595 2.8092 3.7593 2.8092 1.854 0 3.208-0.90329 3.208-0.90329v-2.6419c-2.219 0-2.7706-0.88112-2.7706-3.6995z"/>
     <path d="m135.49 29.312c-7.4263 0-9.9816-5.8208-9.9816-11.349s2.6042-11.503 9.9816-11.503c8.1472 0 9.8835 6.0156 9.8835 11.503 0 5.48-1.687 11.349-9.8835 11.349zm-5.2883-11.821c0 5.4378 1.8413 8.5109 5.2883 8.5109 2.911 0 5.1983-2.6593 5.1983-8.4482 0-5.6003-2.3767-7.6055-5.1983-7.6055-3.2013 0-5.2883 2.1935-5.2883 7.5429z"/>
     <path d="m92.695 6.4596c-3.6519 0-6.0472 1.8666-6.8636 2.6182l-0.56495-1.6544c-0.057595-0.16818-0.21301-0.2811-0.38754-0.2811h-3.6913l0.94901 3.7429v17.967c0 0.23144 0.18378 0.41913 0.4104 0.41913h4.2623v-16.99c1.5432-2.1693 3.7764-2.3212 4.9153-2.3212 1.8974 0 4.0536 1.8491 4.0536 5.3727v13.519c0 0.23144 0.18378 0.41913 0.4104 0.41913h4.2464v-14.682c0-4.4089-2.0265-8.1302-7.74-8.1302"/>
    </g>
   </g>
  </g>
 </g>
</svg>
