<?xml version="1.0" encoding="utf-8"?>
<!-- Generator: Adobe Illustrator 26.2.1, SVG Export Plug-In . SVG Version: 6.00 Build 0)  -->
<svg version="1.1" id="Livello_1" xmlns="http://www.w3.org/2000/svg" xmlns:xlink="http://www.w3.org/1999/xlink" x="0px" y="0px"
	 viewBox="0 0 3401.57 733.65" style="enable-background:new 0 0 3401.57 733.65;" xml:space="preserve">
<style type="text/css">
	.st0{fill:#1A1A35;}
	.st1{fill:#FFFFFF;}
</style>
<path class="st0" d="M2200.08,0.51c46.6,28.75,87.26,66.92,113.64,102.25h145.36V0.51H2200.08z"/>
<path class="st0" d="M1641.13,630.19h-146.56c-145.74,0-263.93-118.19-263.93-263.93c0-145.74,118.19-263.93,263.93-263.93h143.39
	c28.15-37.8,77.02-80.66,114.04-101.81l-257.43-0.38c-202.61,0-367.01,164.4-367.01,366.13c0,202.61,164.4,367.01,367.01,367.01
	l264.69-0.13C1715.17,708.46,1669.83,668.84,1641.13,630.19z"/>
<g>
	<path class="st0" d="M2521.92,630.57h406.19c23.99,0,165.72,102.57,165.72,102.57l-586.13,0.51h-58.65
		c-24.88,0-44.43-19.55-44.43-44.43v-58.65V0.51h58.65c23.99,0,44.43,19.55,44.43,43.54v572.29
		C2507.71,624.35,2513.93,630.57,2521.92,630.57z"/>
	<path class="st0" d="M3101.21,102.71c-61.32,0-110.19,49.76-110.19,111.08v87.09c0,8,6.22,15.11,14.22,15.11h396.34v58.65
		c0,23.99-20.44,43.54-44.43,43.54h-351.91c-8,0-14.22,7.11-14.22,15.11v87.09c0,61.32,48.88,110.19,110.19,110.19h255.93
		c23.99,0,44.43,20.44,44.43,44.43v58.65h-297.7c-119.08,0-215.94-96.86-215.94-215.94v-99.53v-22.22v-79.98V215.57
		c0-119.08,96.86-215.05,215.94-215.05h297.7v58.65c0,23.99-20.44,43.54-44.43,43.54H3101.21z"/>
</g>
<g>
	<path class="st0" d="M1070.19,717.37L832.92,423.22c-2.67-3.55-7.11-5.33-11.55-5.33H716.51c-8,0-14.22,7.11-14.22,15.11v255.93
		c0,24.88-20.44,44.43-44.43,44.43h-58.65V417.89v-29.33c0-39.99,32.88-72.87,73.76-72.87h29.33h43.54h132.41h98.64
		c59.54,0,108.42-49.76,106.64-110.19c-1.78-57.76-53.32-103.08-111.08-103.08h-328.8c-24.88,0-44.43-19.55-44.43-43.54V0.22h377.68
		c123.52,0,221.27,106.64,207.94,231.94c-11.55,107.53-106.64,185.73-214.16,185.73c-3.55,0-6.22,5.33-3.55,8l247.93,307.47h-111.08
		C1090.63,733.36,1078.19,727.14,1070.19,717.37z"/>
	<path class="st0" d="M209.98,102.42c-61.32,0-110.19,49.76-110.19,111.08v87.09c0,8,6.22,15.11,14.22,15.11h396.34v58.65
		c0,23.99-20.44,43.54-44.43,43.54H114c-8,0-14.22,7.11-14.22,15.11v87.09c0,61.32,48.88,110.19,110.19,110.19h255.93
		c23.99,0,44.43,20.44,44.43,44.43v58.65h-297.7C93.56,733.36-3.3,636.5-3.3,517.42v-99.53v-22.22V315.7V215.28
		C-3.3,96.2,93.56,0.22,212.64,0.22l391.21,0c0,0,71.73,102.18,47.74,102.18L209.98,102.42z"/>
</g>
<g>
	<circle class="st0" cx="1977.55" cy="366.62" r="366.62"/>
	<path class="st1" d="M2209.96,190.55c-26.55-6.64-51.77-31.6-102.02-48.91c-34.38-11.84-120.96-29.94-155.12-13.97
		c-5.13,1.24-11.89,2.17-16.77,4.19c-7.94,3.28-12.1,7.45-15.37,15.37c-0.72,1.73-5.01,14.78-6.99,18.17
		c-3.92,6.71-7.34,11.49-13.97,15.37c-6.63,3.87-13.56,5.1-20.96,6.99c-6.82,1.74-13.22,3.05-20.22,3.79
		c-11.95,1.28-22.29,2.22-34.29,1.8c-10.07-0.36-24.94-1.58-34.94-2.79c-11.37-1.38-27.95-3.09-39.13-5.59
		c-0.55-0.12,10.3-5.31,9.78-5.59c1.41,0,95.37-1.63,109.7-5.84c6.66-1.96,24.79-8.83,27.26-12.33
		c1.96-2.78,18.17-34.94,30.74-41.92c32.14-20.96,102.02-7.97,107.92-7.58c59.02,10.41,59.78,17.36,89.12,27.14
		C2189.31,160.38,2209.96,190.55,2209.96,190.55z"/>
	<path class="st1" d="M1723.58,196.33c-1.57,12.9-2.46,25.65-2.35,38.45c0.14,15.5,1.73,30.82,5.8,45.84
		c6.12,22.62,18.02,41.69,35.14,57.6c7,6.5,14.45,12.44,22.01,18.27c8.92,6.88,17.44,14.2,24.92,22.65
		c3.93,4.44,13.72,17.16,16.46,22.44c1.4,2.79-12.46-6.94-12.48-7c-4.26-8.01-15.28-9.84-22.36-15.37
		c-4.42-3.45-36.06-15.86-58.89-54.01c-7.24-8.94-14.67-22.41-18.2-33.41c-1.88-5.86-2.92-11.88-3.41-18.01
		c-1.07-13.38-3.42-29.18-0.95-42.31C1711.55,219.26,1716.64,194.74,1723.58,196.33z"/>
	<path class="st1" d="M1915.32,220.22c-2.34,0.02-4.57-0.5-6.5-0.89c-1.04-0.21-1.7-0.7-2.06-1.83c-1.18-3.66-1.73-7.4-1.34-11.23
		c0.5-4.88,2.6-8.94,6.19-12.16c2.02-1.81,4.31-3.16,6.74-4.29c0.64-0.3,3.14-0.13,3.58,0.55c3.41,5.19,6.02,10.06,8.28,15.91
		c0.54,1.4,1.12,4.29,1.38,5.79c0.49,2.86-1.06,3.71-3.5,5.22c-2.13,1.32-3.28,2.53-5.68,2.94
		C1920.56,220.54,1916.83,220.27,1915.32,220.22z"/>
	<path class="st1" d="M1903.91,228.1c6.73-7.65,29.03,8.54,35.86-11.95c-0.95-4.14-1.64-6.41-3.42-10.25
		c-2.87-6.19-8.4-14.67-11.95-20.49c-0.36-0.58,4.38-1.64,4.49-2.45l-0.04,0.04c0.31-0.02,1.16,0.21,1.31,0.41
		c7.38,10.17,13.37,20.75,18.07,32.47c1.02,2.53,1.89,5.12,2.55,7.77c0.37,1.5,0.38,1.52-0.91,2.32c-4.35,2.71-9.08,4.47-14.09,5.45
		c-8.46,1.66-12.4,1.42-20.6-1.17c-0.59-0.19-5.21-0.89-6.02-1.35C1909.15,228.9,1903.91,228.1,1903.91,228.1z"/>
	<path class="st1" d="M2149.55,342.6c-11.19,28.95-53.41,16.17-67.09,8.64c-27.65-15.21-27.77-149.28-33.56-152.15
		c-4.7-2.33-13.63,108.84-13.63,108.84l13.63-17.59c0,0,4.81,87.44,29.7,84.67c24.89-2.77,57.08,3.44,62.89,11.18
		C2149.86,397.38,2149.55,342.6,2149.55,342.6z"/>
	<path class="st1" d="M2178.46,171.14c31.49,37.58,42.75,55.11,48.26,69.72c11.13,29.53-61.49,111.8-63.17,141.66
		c-0.01,0.24,0.97,1.47,3.08-0.52c14.76-13.94,74.29-77.04,74.29-77.04l-18.06,8.2c0,0,46.63-69.27,25.92-83.34
		s-39.96-43.55-39.96-43.55L2178.46,171.14z"/>
	<path class="st1" d="M2205.07,324.81c0,0-17.32,13.08,0.38,40.84c13.87,21.76,90.69,29.92,138.39,28.16c0,0,2.46-26.44,0-25.98
		c-18.37,3.42-35.54,4.97-51.1,4.87c-9.5-0.06,0.44-4.44,8.42-6.72c12.99-3.71-50.25-4.76-57.53-7.42
		C2221.36,350.39,2205.96,342.57,2205.07,324.81z"/>
	<path class="st1" d="M1952.82,548.31c-0.22,1.5,2.69,11.16,2.79,12.58c0.5,6.55,8.17,30.69,12.58,40.53
		c2.37,5.29,9.06,18.35,11.18,23.76c3.61,9.19,19.35,23.78,20.96,33.54c0.86,5.21,11.33,58.27,11.33,72.84
		c0,3.53-13.08,0.5-16.7,1.86c-5.59-2.79-12.97-51.23-12.99-51.96c-0.01-0.41-3.71,12.99-3.71,12.99
		c-7.42-20.41-1.86-44.54-13.86-62.14c-7.87-14.36-21.46-60.92-22.76-70.01c-0.4-2.79-2.35-8.89-11.63-31.15
		c-2.27-5.44-8.17-19.89-12.93-27.54c-4.43-7.12,1.8,21.98,1.8,21.98s-10.98-27.61-14.85-40.83c-2.43-8.32-10-25.27-14.25-36.29
		c-4.53-11.74-4.9-32.5-4.04-30.11c5.29,14.67,44.48,84.88,58.69,103.41c15.13,19.71,29.25,41.44,46.45,59.38
		c0.31,0.32,0.77,0.56,0.83,1.4C1976.63,572.22,1965.29,561.44,1952.82,548.31z"/>
	<path class="st1" d="M1720.62,217.18c0,0,17.8,1.11,18.62-17.99c0.81-19.1,7.58-4.62,7.58-4.62s14.54,28.13-20.4,37.91
		C1717.53,234.97,1720.62,231.31,1720.62,217.18z"/>
	<path class="st1" d="M1931,584.81c33.4-12.57,93.64-19.9,192.38-95.6c52.99-40.63,88.32-120.12,109.52-141.32
		c7.42-7.42,20.71,6,21.2,12.37c0.89,11.49-34.34,101.39-90.06,145.47c-116.3,92-215.24,112.19-227.9,108.9
		C1932.45,613.68,1921.59,588.35,1931,584.81z"/>
	
		<ellipse transform="matrix(0.4028 -0.9153 0.9153 0.4028 583.7275 2134.6584)" class="st1" cx="1927.76" cy="619.99" rx="18.5" ry="6.8"/>
	<path class="st1" d="M1890.44,638.64c0,0,2.33-6.16,8.36-9.46c7.92-4.32,12.9-3.26,14.93-2.71c3.82,1.04,30.22,9.89,30.22,9.89
		s-1.28,4.84-2.08,6.3c-0.28,0.52-0.94,1.17-1.78,1.53c-0.84,0.36-2.55,0.46-3.38,0.29c-6.59-1.35-18.9-7.46-25.55-8.45
		c-1.57-0.23-4.09,0.09-6.24,1.08c-2.88,1.32-4.8,4.8-4.8,4.8l-3.39,9.76c0,0-0.34,1.05,0.86,1.83l36.73,12.1
		c0,0-1.26,4.92-2.1,6.37c-0.28,0.48-0.89,1.37-1.79,1.77c-0.83,0.37-2.09,0.41-2.82,0.21c-5.82-1.61-33.14-10.99-33.14-10.99
		s-0.59-0.3-1.19,0.06c-0.6,0.36-0.59,0.9-0.59,0.9l-3.01,8.94c0,0-1.32,4.44,0.96,7.56c2.28,3.12,3.1,3.87,4.56,4.56
		c6.05,2.86,25.4,8.4,25.4,8.4s2.19,0.88,2.67,1.96s0.48,2.05,0.35,2.72c-0.32,1.61-2.05,6.23-2.05,6.23s-29.05-9.43-30.5-10.05
		c-2.83-1.2-4.88-2.81-8.84-8.54c-4.56-6.6-2.33-15.1-2.33-15.1L1890.44,638.64z"/>
</g>
</svg>
