<?xml version="1.0" encoding="UTF-8"?>
<svg width="160px" height="38px" version="1.1" viewBox="0 0 160 38" xmlns="http://www.w3.org/2000/svg" xmlns:cc="http://creativecommons.org/ns#" xmlns:dc="http://purl.org/dc/elements/1.1/" xmlns:rdf="http://www.w3.org/1999/02/22-rdf-syntax-ns#" xmlns:xlink="http://www.w3.org/1999/xlink">
 <metadata>
  <rdf:RDF>
   <cc:Work rdf:about="">
    <dc:format>image/svg+xml</dc:format>
    <dc:type rdf:resource="http://purl.org/dc/dcmitype/StillImage"/>
    <dc:title>HashiCorp Logo</dc:title>
   </cc:Work>
  </rdf:RDF>
 </metadata>
<!-- Generator: Sketch 46.1 (44463) - http://www.bohemiancoding.com/sketch -->
 <title>HashiCorp Logo</title>
 <desc>Created with Sketch.</desc>
 <defs>
  <polygon id="path-1" points="0 37.602 159.65 37.602 159.65 0.35376 0 0.35376"/>
 </defs>
 <g id="✓--Assets" fill-rule="evenodd">
  <g id="Asstes" transform="translate(-48 -48)">
   <polygon points="102.38 77.315 102.38 68.744 94.843 68.744 94.843 77.315 91 77.315 91 57 94.843 57 94.843 65.358 102.38 65.358 102.38 57 106.22 57 106.22 77.315"/>
   <g id="Logo" transform="translate(48 48)">
    <path d="m68.673 23.644h-2.7449c-1.2205 0-1.5559 0.33535-1.5559 1.4638 0 1.0375 0.33535 1.4949 1.4949 1.4949 1.0981 0 2.1046-0.36604 2.8059-0.7624v-2.1963zm3.7214 5.6123h-3.0504l-0.27434-1.0064c-1.3422 0.8848-2.9283 1.3115-4.4228 1.3115-2.715 0-3.8741-1.8605-3.8741-4.4228 0-3.02 1.3118-4.1788 4.3315-4.1788h3.5687v-1.5559c0-1.6472-0.45736-2.2266-2.837-2.2266-1.3418 0-2.8059 0.18302-4.1174 0.45736l-0.45736-2.8366c1.4028-0.42705 3.4463-0.70177 5.0935-0.70177 4.6672 0 6.0397 1.6472 6.0397 5.3686v9.7915z"/>
    <path d="m79.593 29.561c-1.5862 0-3.7518-0.36604-5.1242-0.8541l0.51837-2.8366c1.2505 0.36604 2.8976 0.64077 4.4228 0.64077 1.6472 0 1.8912-0.36604 1.8912-1.4949 0-0.91472-0.18302-1.3725-2.593-1.9522-3.6297-0.88441-4.0568-1.7995-4.0568-4.6669 0-2.9894 1.3118-4.3012 5.5517-4.3012 1.3725 0 3.172 0.18302 4.4531 0.51875l-0.36566 2.959c-1.1284-0.21372-2.9283-0.42705-4.0875-0.42705-1.6165 0-1.8912 0.36604-1.8912 1.2808 0 1.1898 0.091319 1.2812 2.1046 1.7999 4.1485 1.0981 4.5452 1.6472 4.5452 4.6976 0 2.8673-0.88441 4.6362-5.3686 4.6362"/>
    <path d="m96.034 29.256v-10.371c0-0.79309-0.33535-1.1898-1.1898-1.1898-0.91472 0-2.5312 0.54945-3.8734 1.2508v10.31h-3.7218v-20.925l3.7218-0.51837v7.7172c1.6472-0.8541 3.8431-1.4339 5.4293-1.4339 2.471 0 3.3554 1.7389 3.3554 4.3929v10.767h-3.7214z"/>
    <mask id="mask-2" fill="white">
     <use xlink:href="#path-1"/>
    </mask>
    <path d="m102.5 29.256h3.7211v-14.855h-3.7211v14.855zm0-16.96h3.7211v-4.3008h-3.7211v4.3008z" mask="url(#mask-2)"/>
    <path d="m108.82 14.523c0-3.7214 2.1656-5.887 7.2292-5.887 1.8912 0 3.8431 0.24365 5.5206 0.67108l-0.42667 3.3247c-1.6472-0.30504-3.5691-0.51875-4.9719-0.51875-2.654 0-3.5077 0.91511-3.5077 3.0811v7.8089c0 2.1656 0.85372 3.0807 3.5077 3.0807 1.4028 0 3.3247-0.21372 4.9719-0.51875l0.42667 3.3247c-1.6775 0.42743-3.6294 0.67108-5.5206 0.67108-5.0636 0-7.2292-2.1656-7.2292-5.8866v-9.1511z" mask="url(#mask-2)"/>
    <path d="m129.19 17.269c-1.9829 0-2.7453 0.88441-2.7453 2.5623v3.9958c0 1.6775 0.7624 2.5623 2.7453 2.5623 1.9825 0 2.7449-0.8848 2.7449-2.5623v-3.9958c0-1.6779-0.7624-2.5623-2.7449-2.5623m0 12.292c-5.0939 0-6.4668-2.8059-6.4668-5.8567v-3.7518c0-3.05 1.3729-5.8567 6.4668-5.8567s6.4668 2.8067 6.4668 5.8567v3.7518c0 3.0507-1.3729 5.8567-6.4668 5.8567" mask="url(#mask-2)"/>
    <path d="m145.54 17.513c-1.4335 0.64038-2.593 1.3115-3.9352 2.1659v9.5774h-3.7211v-14.855h3.1417l0.24403 1.6472c0.82379-0.54906 2.5926-1.5862 3.9045-1.9522l0.36604 3.4164z" mask="url(#mask-2)"/>
    <path d="m150.77 25.993c0.97612 0.21372 2.227 0.39635 3.2944 0.39635 1.3422 0 1.8609-0.64038 1.8609-1.9825v-5.2466c0-1.2198-0.45775-1.8908-1.8302-1.8908-1.2205 0-2.532 0.61007-3.3251 1.3418v7.3819zm8.8764-1.6779c0 3.2944-1.4642 5.2466-4.9109 5.2466-1.3115 0-2.8063-0.18302-3.9655-0.42705v6.131l-3.7211 0.51875v-21.383h2.9587l0.36604 1.2508c1.3115-0.9458 2.8366-1.5559 4.6976-1.5559 2.989 0 4.5752 1.7692 4.5752 5.1553v5.0632z" mask="url(#mask-2)"/>
    <polygon points="14.945 0.3538 0.28175 8.8127 0.28175 8.8196 0.28175 29.13 5.7908 32.311 5.7908 11.993 14.945 6.7085" mask="url(#mask-2)"/>
    <polygon points="20.798 0.3538 20.798 16.535 14.945 16.535 14.945 10.496 9.4359 13.676 9.4359 34.408 14.945 37.596 14.945 21.461 20.798 21.461 20.798 27.46 26.307 24.279 26.307 3.5346" mask="url(#mask-2)"/>
    <polygon points="20.798 37.602 35.461 29.143 35.461 29.137 35.461 8.8254 29.952 5.6446 29.952 25.962 20.798 31.247" mask="url(#mask-2)"/>
   </g>
  </g>
 </g>
</svg>
