<?xml version="1.0" encoding="UTF-8" standalone="no"?>
<!-- Generator: Adobe Illustrator 19.0.1, SVG Export Plug-In . SVG Version: 6.00 Build 0)  -->

<svg
   xmlns:dc="http://purl.org/dc/elements/1.1/"
   xmlns:cc="http://creativecommons.org/ns#"
   xmlns:rdf="http://www.w3.org/1999/02/22-rdf-syntax-ns#"
   xmlns:svg="http://www.w3.org/2000/svg"
   xmlns="http://www.w3.org/2000/svg"
   xmlns:sodipodi="http://sodipodi.sourceforge.net/DTD/sodipodi-0.dtd"
   xmlns:inkscape="http://www.inkscape.org/namespaces/inkscape"
   version="1.1"
   id="Layer_1"
   x="0px"
   y="0px"
   viewBox="0 0 22 22"
   style="enable-background:new 0 0 22 22;"
   xml:space="preserve"
   sodipodi:docname="icon-circle-check.svg"
   inkscape:version="0.92.2 (5c3e80d, 2017-08-06)"><metadata
     id="metadata4514"><rdf:RDF><cc:Work
         rdf:about=""><dc:format>image/svg+xml</dc:format><dc:type
           rdf:resource="http://purl.org/dc/dcmitype/StillImage" /></cc:Work></rdf:RDF></metadata><defs
     id="defs4512"><filter
       inkscape:collect="always"
       style="color-interpolation-filters:sRGB"
       id="filter5083"
       x="-1.0872397"
       width="3.1744793"
       y="-1.0847632"
       height="3.1695263"><feGaussianBlur
         inkscape:collect="always"
         stdDeviation="9.7390853"
         id="feGaussianBlur5085" /></filter></defs><sodipodi:namedview
     pagecolor="#ffffff"
     bordercolor="#666666"
     borderopacity="1"
     objecttolerance="10"
     gridtolerance="10"
     guidetolerance="10"
     inkscape:pageopacity="0"
     inkscape:pageshadow="2"
     inkscape:window-width="3840"
     inkscape:window-height="2089"
     id="namedview4510"
     showgrid="false"
     inkscape:zoom="60.682618"
     inkscape:cx="17.323299"
     inkscape:cy="6.8591926"
     inkscape:window-x="0"
     inkscape:window-y="34"
     inkscape:window-maximized="1"
     inkscape:current-layer="Layer_1" /><style
     type="text/css"
     id="style4493">
	.st0{clip-path:url(#SVGID_2_);fill:none;stroke:#95C63F;stroke-width:4;stroke-miterlimit:10;}
	.st1{fill:#95C63F;}
</style><g
     id="g4507"><path
       class="st1"
       d="M9,17c-0.3,0-0.5-0.1-0.7-0.3l-3-3c-0.4-0.4-0.4-1,0-1.4s1-0.4,1.4,0l2.1,2.1l5.3-8c0.3-0.5,0.9-0.6,1.4-0.3   c0.5,0.3,0.6,0.9,0.3,1.4l-6,9C9.7,16.8,9.4,17,9,17C9.1,17,9,17,9,17z"
       id="path4505"
       style="fill:#00abee;fill-opacity:1" /></g><path
     style="opacity:1;vector-effect:none;fill:#00abee;fill-opacity:1;stroke:#00abee;stroke-width:0;stroke-linecap:butt;stroke-linejoin:miter;stroke-miterlimit:4;stroke-dasharray:none;stroke-dashoffset:0;stroke-opacity:1"
     d="M 9.8983528,21.897029 C 8.2169032,21.731071 6.2289616,21.005856 4.805237,20.039023 3.4601,19.125558 2.0573966,17.540713 1.2920841,16.069686 -1.9668363,9.8056293 1.474313,2.1290491 8.3253101,0.37983438 10.76216,-0.24234869 13.494938,0.04433657 15.77554,1.1614095 18.763549,2.6249813 20.84713,5.2137809 21.659916,8.4726059 21.877135,9.3435314 21.90653,9.6458534 21.905658,11 c -0.0011,1.735799 -0.165797,2.631998 -0.752739,4.096467 -1.8,4.491149 -6.412814,7.278438 -11.2545662,6.800562 z m 3.2917192,-2.131182 c 3.088942,-0.762499 5.526509,-3.122948 6.501188,-6.295508 0.239745,-0.780362 0.257755,-0.952967 0.257755,-2.470339 0,-1.5097053 -0.01883,-1.6925243 -0.252552,-2.4516368 C 18.704782,5.3274113 16.304476,3.0095633 13.141923,2.218995 11.965657,1.9249545 10.050609,1.9255795 8.8708526,2.2203888 7.9707816,2.4453076 6.5828874,3.0602897 5.8728141,3.548833 5.1510303,4.0454332 4.1182326,5.0829413 3.6013084,5.8306986 -0.16073717,11.27269 2.9090652,18.661738 9.4469426,19.901204 c 0.9706534,0.184019 2.7031024,0.121371 3.7431294,-0.135357 z"
     id="path4516"
     inkscape:connector-curvature="0" /><path
     style="opacity:1;vector-effect:none;fill:#00abee;fill-opacity:0;stroke:#00abee;stroke-width:0.04803682;stroke-linecap:butt;stroke-linejoin:miter;stroke-miterlimit:4;stroke-dasharray:none;stroke-dashoffset:0;stroke-opacity:1"
     d="M 8.7327772,16.960397 C 8.6079477,16.926829 8.4997414,16.864089 8.3628592,16.745912 8.2979911,16.689908 7.5580375,15.95546 6.718518,15.113806 L 5.192119,13.583525 5.1155476,13.426972 c -0.097682,-0.199713 -0.1252651,-0.361465 -0.095945,-0.562633 0.055895,-0.383495 0.3848739,-0.739993 0.7657371,-0.829792 0.2186514,-0.05155 0.4195362,-0.027 0.6386272,0.07807 l 0.1400731,0.06717 1.1162499,1.113239 c 0.6959845,0.694107 1.1219246,1.107264 1.1313222,1.097369 0.00829,-0.0087 1.2176389,-1.8327 2.6874429,-4.05327 2.87124,-4.3378511 2.75567,-4.1713092 2.975163,-4.2873196 0.158114,-0.08357 0.283978,-0.1090638 0.494206,-0.1001038 0.143093,0.0061 0.206667,0.01712 0.301852,0.052327 0.364664,0.1348848 0.599652,0.3894371 0.670347,0.7261553 0.02884,0.1373535 0.03061,0.215888 0.0078,0.3471561 -0.04622,0.266222 0.09604,0.044212 -3.119832,4.868506 -1.658466,2.487945 -3.0404448,4.572825 -3.0710642,4.633068 -0.099672,0.196101 -0.2970146,0.342049 -0.528804,0.391087 -0.1201295,0.02541 -0.388475,0.0213 -0.49596,-0.0076 z"
     id="path4518"
     inkscape:connector-curvature="0" /><path
     style="opacity:0.70999995;vector-effect:none;fill:#00bee0;fill-opacity:0;stroke:#000000;stroke-width:0.04803682;stroke-linecap:butt;stroke-linejoin:miter;stroke-miterlimit:4;stroke-dasharray:none;stroke-dashoffset:0;stroke-opacity:1;filter:url(#filter5083)"
     d="m 23.026744,26.270571 c -0.26451,-0.01412 -0.740487,-0.05883 -0.955792,-0.08978 C 20.64807,25.97624 19.0152,25.383815 17.769885,24.620311 17.138103,24.232964 16.666548,23.851466 16.013793,23.199594 15.037062,22.224185 14.364732,21.305007 13.83777,20.224635 13.259815,19.039717 12.927138,17.85452 12.790073,16.4921 c -0.04159,-0.41343 -0.04175,-1.552759 -2.66e-4,-1.955941 0.159474,-1.550009 0.601405,-2.973668 1.326481,-4.27319 1.059799,-1.8994321 2.622406,-3.4064706 4.535233,-4.3739527 2.06999,-1.0469727 4.314804,-1.391128 6.612362,-1.013749 1.124062,0.1846298 2.183347,0.5344814 3.184231,1.0516613 2.969967,1.5346492 4.979019,4.2127334 5.684087,7.5769424 0.09116,0.434946 0.125191,0.923745 0.124884,1.793489 -5.11e-4,1.452204 -0.07539,2.156286 -0.323328,3.040409 -0.234639,0.83669 -0.642411,1.80306 -1.084764,2.570753 -0.603706,1.047716 -1.433334,2.031576 -2.390137,2.83447 -1.722204,1.445175 -3.861564,2.318084 -6.138496,2.50465 -0.22832,0.01871 -1.087415,0.03393 -1.293616,0.02293 z m 1.359533,-1.63676 c 0.795191,-0.07616 1.42831,-0.200069 2.024495,-0.396224 2.415767,-0.794829 4.422344,-2.621517 5.503315,-5.009942 0.319594,-0.70615 0.606221,-1.590505 0.671772,-2.072673 0.05546,-0.40793 0.06073,-2.832078 0.0071,-3.250103 C 32.539002,13.4848 32.309453,12.71017 32.058202,12.100398 31.927896,11.784153 31.619297,11.159958 31.455308,10.880939 30.418559,9.1169594 28.937262,7.8035718 27.105642,7.024319 26.418144,6.7318268 25.64646,6.5115425 25.004246,6.4244563 c -0.41461,-0.056223 -0.618058,-0.068998 -1.252418,-0.078645 -1.04316,-0.015863 -1.743949,0.047783 -2.413881,0.2192309 -0.623678,0.1596104 -1.575253,0.5355991 -2.26867,0.8964028 -0.734839,0.3823562 -1.176811,0.7140318 -1.898684,1.4248582 -0.651676,0.6417036 -1.055558,1.1286313 -1.418875,1.7106253 -0.667019,1.068487 -1.102732,2.209487 -1.300958,3.406815 -0.08076,0.487787 -0.102523,0.741284 -0.11209,1.305441 -0.0094,0.555422 0.0052,0.859636 0.0634,1.322988 0.21757,1.73085 0.945584,3.396473 2.081596,4.762484 0.212483,0.255504 0.848765,0.89306 1.113182,1.115414 0.896174,0.753608 1.899279,1.321512 2.992932,1.694434 0.72169,0.246089 1.371932,0.38882 2.02498,0.444495 0.221096,0.01885 1.533611,0.0076 1.771512,-0.01519 z"
     id="path5065"
     inkscape:connector-curvature="0" /></svg>