<?xml version="1.0" encoding="UTF-8"?>
<!-- Created with Inkscape (http://www.inkscape.org/) -->
<svg width="852.92" height="276.16" version="1.1" xmlns="http://www.w3.org/2000/svg" xmlns:cc="http://creativecommons.org/ns#" xmlns:dc="http://purl.org/dc/elements/1.1/" xmlns:rdf="http://www.w3.org/1999/02/22-rdf-syntax-ns#" xmlns:xlink="http://www.w3.org/1999/xlink">
 <metadata>
  <rdf:RDF>
   <cc:Work rdf:about="">
    <dc:format>image/svg+xml</dc:format>
    <dc:type rdf:resource="http://purl.org/dc/dcmitype/StillImage"/>
    <dc:title/>
   </cc:Work>
  </rdf:RDF>
 </metadata>
 <g transform="translate(-81.513 -618.35)">
  <g fill="none" stroke="#000">
   <g stroke-linecap="round" stroke-width="8.3621">
    <g stroke-linejoin="round">
     <path d="m208.26 806.35c-0.92909 33.217 1.4885 59.575 4.7387 67.704 3.2523 8.1287 13.977 20.176 37.911 15.049 19.995-4.2873 29.153-12.583 32.31-30.893 2.3252-13.472 5.5527-41.284 6.1276-48.95"/>
     <path d="m191.06 636.06s-110.24-44.287-105.2 56.424c1.0714 21.425 32.593 162.12 67.943 119.62 21.389-19.933 24.601-27.729 24.601-27.729"/>
     <path d="m241.87 627.98c-3.7507 1.176 60.274-23.405 96.66 23.088 12.853 16.425-2.0413 83.533-37.67 136.4"/>
    </g>
    <path d="m300.86 776.61s2.3218 11.429 36.067 4.4632c14.785-3.0537 5.8874 19.427-9.1081 26.391-12.307 5.7116-39.898 7.1752-40.349-0.71712-1.1599-20.363 14.522-25.034 13.39-30.137-1.0231-4.5953-8.0361 1.7518-12.675-9.4949-4.0499-9.8165-55.543-85.096 14.28-73.916 2.5579-0.52934-18.211-66.415-83.556-67.486-65.33-1.0714-63.187 80.342-63.187 80.342" stroke-linejoin="bevel"/>
    <path d="m193.74 794.44c-9.1081 10.174-6.4294 11.96-24.635 15.709-18.421 3.7968-7.5881 7.5316-0.53475 9.6203 15.154 2.7711 27.126 7.25 41.771-8.3607 4.0774-5.7082-0.0232-17.326-5.6251-19.648-2.7062-1.121-6.3247-2.5258-10.976 2.6794z" stroke-linejoin="round"/>
    <path d="m193.14 794.26c-0.91773-5.9819 1.9655-13.1 5.0555-21.428 4.6436-12.495 15.358-24.992 6.7869-64.629-6.3885-29.537-49.237-6.1469-49.264-2.142-0.0232 4.0036 1.9381 20.3-0.71558 39.277-3.4629 24.763 15.757 45.706 37.889 43.563" stroke-linejoin="round"/>
   </g>
   <path d="m182.95 705.46c-0.19319 1.3679 2.5042 5.0179 6.0215 5.5057 3.5112 0.48993 6.5165-2.3627 6.7071-3.7293 0.19087-1.3679-2.5036-2.8746-6.0222-3.3643-3.5132-0.4907-6.5199 0.22333-6.7058 1.5879z" stroke-width="2.7874"/>
   <path d="m289.9 702.67c0.19087 1.3679-2.5036 5.0179-6.0215 5.5056-3.5139 0.48993-6.5193-2.3627-6.7118-3.7292-0.18623-1.3679 2.5089-2.8746 6.0235-3.3643 3.5145-0.48993 6.5192 0.22333 6.7098 1.5886z" stroke-width="1.3937"/>
   <path d="m302.46 693.2c0.5788 10.729-2.3111 18.038-2.6754 29.459-0.53938 16.602 7.9153 35.604-4.824 54.63" stroke-linecap="round" stroke-linejoin="round" stroke-width="8.3621"/>
  </g>
  <path d="m171.64 788.77 20.97-0.4822-9.2141 13.491-15.886-1.4455z"/>
  <g fill="#316192" stroke="#fff" stroke-linecap="round" stroke-width="7.7067">
   <g stroke-linejoin="round">
    <path d="m330.37 787c-31.1 6.4151-33.238-4.1146-33.238-4.1146 32.836-48.724 46.563-110.57 34.717-125.71-32.316-41.291-88.258-21.763-89.191-21.256l-0.30061 0.0541c-6.1443-1.2754-13.021-2.0353-20.749-2.1614-14.072-0.23106-24.746 3.6892-32.846 9.8315 0 0-99.794-41.111-95.153 51.705 0.98736 19.746 28.301 149.41 60.881 110.24 11.908-14.321 23.413-26.429 23.413-26.429 5.7146 3.7961 12.556 5.7325 19.728 5.037l0.55716-0.47293c-0.1731 1.7781-0.0943 3.5173 0.22333 5.5761-8.3929 9.3771-5.9267 11.024-22.704 14.477-16.977 3.4987-7.0036 9.728-0.49225 11.356 7.894 1.9736 26.157 4.7702 38.497-12.504l-0.49225 1.9711c3.2885 2.6337 5.5977 17.133 5.2106 30.276-0.38716 13.144-0.64526 22.167 1.9456 29.216 2.5912 7.0476 5.1736 22.906 27.229 18.18 18.43-3.9488 27.98-14.184 29.309-31.256 0.94284-12.137 3.0764-10.343 3.2112-21.194l1.7114-5.1381c1.9735-16.452 0.31374-21.76 11.668-19.291l2.7593 0.24265c8.357 0.3802 19.295-1.3441 25.714-4.3278 13.823-6.4151 22.021-17.126 8.3916-14.311h1e-3z"/>
    <path d="m215.05 796.43c-0.8563 30.614 0.21482 61.441 3.2107 68.933 2.9973 7.4927 9.4118 22.065 31.469 17.339 18.428-3.9504 25.133-11.596 28.042-28.472 2.1429-12.416 6.2741-46.897 6.8039-53.962"/>
    <path d="m188.61 642.96s-99.862-40.815-95.22 52.001c0.98736 19.746 28.303 149.41 60.882 110.25 11.905-14.323 22.672-25.556 22.672-25.556"/>
    <path d="m242.55 635.51c-3.4567 1.0839 55.549-21.57 89.083 21.279 11.845 15.138-1.8814 76.985-34.717 125.71"/>
   </g>
   <path d="m296.92 782.5s2.1398 10.533 33.24 4.1132c13.626-2.8143 5.4259 7.8977-8.3941 14.316-11.342 5.2638-36.77 6.6129-37.186-0.66071-1.069-18.767 13.384-13.066 12.34-17.768-0.94284-4.2351-7.4061-8.3916-11.681-18.757-3.7324-9.047-51.189-78.426 13.161-68.122 2.3575-0.48762-16.783-61.209-77.006-62.196-60.209-0.98735-58.234 74.044-58.234 74.044" stroke-linejoin="bevel"/>
   <path d="m198.2 788.91c-8.3941 9.3765-5.9254 11.023-22.704 14.478-16.977 3.4994-7.0024 9.7271-0.49302 11.354 7.8939 1.976 26.157 4.7718 38.497-12.506 3.7578-5.2608-0.0232-13.655-5.1841-15.795-2.4941-1.0331-5.829-2.3277-10.115 2.4694z" stroke-linejoin="round"/>
   <path d="m197.65 788.75c-0.84578-5.513 1.8115-12.073 4.6592-19.749 4.2796-11.516 14.154-23.033 6.2549-59.563-5.8877-27.221-45.378-5.6651-45.403-1.9741-0.0232 3.6898 1.7862 18.709-0.65994 36.198-3.1914 22.822 14.522 42.123 34.919 40.149" stroke-linejoin="round"/>
  </g>
  <g stroke="#fff">
   <path d="m188.25 706.91c-0.17773 1.2607 2.308 4.6246 5.5495 5.0741 3.236 0.45129 6.0058-2.1776 6.1814-3.4369 0.17542-1.2606-2.3073-2.6493-5.5501-3.1006-3.2378-0.45207-6.0088 0.20555-6.1802 1.4634z" fill="#fff" stroke-width="2.5689"/>
   <path d="m286.82 704.34c0.17542 1.2606-2.3074 4.6246-5.5495 5.074-3.2385 0.45129-6.0083-2.1775-6.1857-3.4369-0.17155-1.2606 2.3123-2.6492 5.5514-3.1006 3.239-0.45129 6.0082 0.20556 6.1839 1.4641z" fill="#fff" stroke-width="1.2844"/>
   <path d="m298.4 695.62c0.53398 9.8885-2.1299 16.624-2.4656 27.15-0.49688 15.301 7.2949 32.814-4.4458 50.348" fill="#316192" stroke-linecap="round" stroke-linejoin="round" stroke-width="7.7067"/>
  </g>
  <g fill="#1a1a1a">
   <path d="m449.81 735.38c-9e-5 6.1495-1.8244 10.967-5.4732 14.451-3.6489 3.4847-8.6506 5.2271-15.005 5.2271h-25.336l0.0648 29.088-6.8877 0.10792v-68.385l34.069-0.11867c5.8626 0 10.413 1.7424 13.652 5.2271 3.2797 3.4847 4.9196 8.3029 4.9197 14.452m-6.9492 0.24815c0-9.5932-4.5917-14.391-13.775-14.391l-25.091-0.10792v28.473h23.799c10.044 0 15.067-4.6736 15.067-14.021"/>
   <path d="m499.68 761.76c-1.1e-4 7.2974-1.9065 12.997-5.7192 17.097-4.2639 4.5916-10.475 6.8874-18.633 6.8874-3.8948 0-7.2976-0.52864-10.209-1.5989-2.8698-1.1069-5.3912-2.8288-7.564-5.1656-3.9358-4.3866-5.9037-10.127-5.9037-17.22 0-7.1334 1.9064-12.791 5.7192-16.973 4.2227-4.6736 10.208-7.0104 17.957-7.0104 8.1994 0 14.39 2.2753 18.572 6.8259 3.8537 4.0997 5.7805 9.8187 5.7806 17.157m-5.9651 0c-1e-4 -12.75-6.1292-19.125-18.387-19.125-5.5348 0-9.8805 1.7014-13.037 5.1041-1.517 1.6399-2.6854 3.6487-3.5053 6.0265-0.77895 2.3368-1.1684 5.0016-1.1684 7.9944 0 5.8625 1.5169 10.536 4.5507 14.022 3.0748 3.4437 7.4615 5.1656 13.16 5.1656 6.3136 0 11.008-1.7834 14.083-5.3501 1.4759-1.5989 2.5623-3.5473 3.2592-5.8431 0.69695-2.2958 1.0454-4.9606 1.0454-7.9944"/>
   <path d="m547.79 771.79c-1e-4 9.2253-6.9082 13.837-20.724 13.837-4.2228 0-7.7896-0.32366-10.7-0.98176-2.8699-0.65811-5.2067-1.7219-7.0106-3.1978-1.3939-1.1069-2.5008-2.5623-3.3207-4.3661-0.81993-1.8448-1.353-4.1213-1.599-6.827l6.3957-0.10792c0 3.6088 1.1274 6.2736 3.3822 7.9954 2.4189 2.0498 6.7032 3.0748 12.853 3.0748 9.6754 0 14.513-2.8903 14.513-8.6719 0-3.3617-1.6194-5.678-4.8582-6.9489-0.65594-0.2913-4.5712-0.93861-11.746-1.9678-7.1336-1.0681-11.582-2.0088-13.345-2.8288-3.8128-1.8039-5.7191-5.0631-5.7191-9.7777 0-4.5916 1.7014-8.0148 5.1042-10.27 1.6809-0.93862 3.7717-1.6604 6.2726-2.1523 2.5418-0.52865 5.4732-0.79836 8.794-0.79836 13.283 0 19.925 4.9811 19.925 14.943h-6.0881c0-7.0104-4.6737-10.516-14.021-10.516-4.7557 0-8.302 0.72284-10.639 2.1523-2.3369 1.3939-3.5053 3.5667-3.5053 6.5185 0 2.7468 1.5784 4.7146 4.7352 5.9035 1.8448 0.6581 6.0881 1.3939 12.73 2.2138 5.9446 0.65811 10.024 1.5579 12.238 2.7058 4.2228 1.9678 6.3341 5.3091 6.3342 10.024"/>
   <path d="m575.68 784.33c-0.98392 0.20499-1.8655 0.34524-2.6444 0.43155-0.73793 0.10792-1.2709 0.11867-1.5989 0.11867-4.1818 0-7.1951-0.72284-9.04-2.1523-1.845-1.4759-2.7674-4.0382-2.7674-7.6869v-31.056h-7.6256v-4.6121h7.5641l0.0648-14.821h5.8421v14.883l10.209-0.10792v4.6736l-10.209-0.10792v30.194c0 2.2559 0.49196 3.8138 1.476 4.6747 1.0249 0.86309 2.8288 1.2914 5.4117 1.2914 0.36898 0 0.77893 0 1.2299-0.10792 0.45095-0.10792 1.1274-0.22656 2.0294-0.43154l0.0648 4.6736"/>
   <path d="m623.49 782.79c-1e-4 13.611-7.6461 20.416-22.938 20.416-7.9946 0-13.673-1.3119-17.035-3.9356-2.9109-2.2548-4.6942-5.883-5.3502-10.885l6.0266-0.10792c0.69694 3.6487 1.9679 6.1905 3.8128 7.6254 2.4598 1.9268 6.5801 2.8902 12.361 2.8902 6.1496 0 10.557-1.3939 13.222-4.1817 2.7058-2.7878 4.0587-6.744 4.0587-11.869l-0.0648-7.9944c-3.6899 5.7805-9.942 8.6708-18.757 8.6708-7.3385 0-13.017-2.0088-17.034-6.0265-1.845-1.9678-3.2593-4.3467-4.2433-7.1345-0.94293-2.8288-1.4144-6.047-1.4144-9.6547 0-7.2154 1.9064-12.729 5.7192-16.542 4.0178-4.1817 9.8394-6.2725 17.465-6.2725 5.2066 0 9.4498 1.0864 12.73 3.2592 1.1069 0.81992 2.9519 2.8083 5.5348 5.965l0.0648-7.7484h5.8421v43.478m-5.8421-22.385c-1.1e-4 -5.3706-1.4965-9.6547-4.4892-12.852-2.9519-3.2388-7.2976-4.8581-13.037-4.8581-5.6988 0-10.127 1.5989-13.283 4.7966-3.1158 3.1568-4.6737 7.5434-4.6737 13.16 0 12.094 6.1291 18.142 18.387 18.142 2.6648 0 5.0222-0.40997 7.072-1.2299 2.0498-0.81992 3.8743-2.0293 5.4733-3.6293 3.0338-3.1568 4.5506-7.6664 4.5506-13.529"/>
   <path d="m657.51 743.93c-1.7629-0.32365-3.4028-0.49627-4.9197-0.49627-9.6344 0-14.452 6.293-14.452 18.879l0.0648 21.832h-5.8421l-0.0648-44.708 5.8421-0.10792v8.0558h0.30747c0.98392-3.1567 2.5419-5.5346 4.6737-7.1334 2.3368-1.5579 5.8216-2.3368 10.454-2.3368h2.3369c0.65595 0 1.1889 0 1.5989 0.10792v5.9035"/>
   <path d="m705.66 762.99h-41.756c0 5.1246 1.4145 9.3062 4.2433 12.546 3.2798 3.7717 7.9741 5.6576 14.083 5.6576 8.6505 0 14.062-3.8742 16.235-11.624h6.3341c-0.94292 4.4287-3.1774 8.1594-6.7031 11.193-2.009 1.5989-4.3664 2.8288-7.0722 3.6897-2.6649 0.90624-5.5756 1.3529-8.7325 1.3529-7.9126 0-14.042-2.3778-18.387-7.1334-4.0178-4.2637-6.0266-10.025-6.0266-17.281 0-7.2154 2.0908-12.914 6.2726-17.096 4.1818-4.2227 10.065-6.334 17.65-6.334 4.0588 0 7.6051 0.59337 10.639 1.7834 3.0339 1.1479 5.5756 2.9313 7.6256 5.3501 3.7307 4.3456 5.5962 10.311 5.5962 17.895m-6.1496-4.0587c0-4.3047-1.6605-8.1584-4.9812-11.561-3.2798-3.4027-7.5231-5.1041-12.73-5.1041-2.6649 0-5.0632 0.40995-7.195 1.2299-2.1319 0.77678-4.0383 1.9883-5.7193 3.6282-2.5828 2.7878-4.2433 6.7235-4.9812 11.807h35.606"/>
  </g>
  <g fill="#316192">
   <path d="m782.14 766.04c0 16.055-10.81 24.081-32.428 24.081-12.952 0-22.407-2.7576-28.366-8.2727-4.8754-4.5312-7.3131-11.425-7.3131-20.684h8.7166c0 14.922 8.9873 22.383 26.962 22.383 8.618 0 14.848-1.5514 18.689-4.6542 3.2502-2.6594 4.8754-6.8702 4.8754-12.631 0-5.7126-2.2161-9.7259-6.6482-12.041-2.5116-1.231-8.6427-2.7824-18.393-4.6531-12.262-2.216-20.215-4.4568-23.86-6.7224-5.2693-3.2992-7.904-8.8639-7.904-16.694 0-7.387 2.2407-12.854 6.722-16.399 4.8262-3.94 13.099-5.91 24.82-5.91 21.176 0 31.763 8.3968 31.764 25.189h-8.7903c-1e-4 -12.557-7.8548-18.836-23.564-18.836-7.8795 0-13.641 1.2558-17.285 3.7674-3.4473 2.7079-5.1709 6.6728-5.1709 11.892 0 5.4666 2.2161 9.3321 6.6482 11.598 2.3638 1.2806 9.3074 3.0532 20.831 5.3188 10.834 1.9689 18.147 4.2345 21.939 6.7957 5.1708 3.201 7.7562 8.6913 7.7562 16.472"/>
   <path d="m868.46 789.9-5.3185 5.7622-12.853-10.711c-2.7086 1.7229-6.0081 3.0284-9.8984 3.9141-3.8905 0.88467-8.4458 1.3302-13.666 1.3302-13.346 0-23.884-3.9648-31.616-11.893-7.6824-7.9771-11.524-18.442-11.524-31.394 0-13.247 3.8166-23.761 11.45-31.543 7.633-7.7808 18.147-11.671 31.542-11.671 6.8945 0 13.026 1.0357 18.393 3.1028 5.3678 2.0682 9.9476 5.2206 13.74 9.4551 7.0914 7.6826 10.637 17.902 10.637 30.656-1e-4 7.141-1.0835 13.444-3.2503 18.91-2.1669 5.417-5.5156 10.022-10.046 13.814l12.41 10.268m-7.4608-42.992c0-5.6144-0.76385-10.613-2.2899-14.995-1.5267-4.433-3.8905-8.2986-7.0915-11.598-6.0573-6.7472-14.38-10.12-24.968-10.12-10.44 0-18.837 3.2247-25.189 9.6763-6.3035 6.4516-9.4552 15.463-9.4552 27.036 0 11.13 3.1764 20.043 9.5291 26.741 6.4018 6.6479 14.774 9.9719 25.115 9.9719 5.0723 0 9.6521-0.78757 13.74-2.3638 4.0874-1.5762 7.7561-3.9152 11.006-7.018 6.402-6.6965 9.603-15.807 9.603-27.331"/>
   <path d="m934.36 787.98-59.464 0.10792v-82.142l8.1994-0.15105v75.347h51.339l-0.0755 6.8702"/>
  </g>
 </g>
</svg>
