<?xml version="1.0" encoding="UTF-8"?>
<svg width="339.76" height="120" version="1.1" viewBox="0 0 339.76 120" xmlns="http://www.w3.org/2000/svg" xmlns:cc="http://creativecommons.org/ns#" xmlns:dc="http://purl.org/dc/elements/1.1/" xmlns:rdf="http://www.w3.org/1999/02/22-rdf-syntax-ns#">
 <metadata>
  <rdf:RDF>
   <cc:Work rdf:about="">
    <dc:format>image/svg+xml</dc:format>
    <dc:type rdf:resource="http://purl.org/dc/dcmitype/StillImage"/>
    <dc:title>spinnaker-logo-inline</dc:title>
   </cc:Work>
  </rdf:RDF>
 </metadata>
<!-- Generator: Sketch 44.1 (41455) - http://www.bohemiancoding.com/sketch -->
 <title>spinnaker-logo-inline</title>
 <desc>Created with Sketch.</desc>
 <defs>
  <linearGradient id="linearGradient-1" x1="107.69" x2="52.549" y1="-.54942" y2="132.67" gradientTransform="scale(.96609 1.0351)" gradientUnits="userSpaceOnUse">
   <stop stop-color="#2B3990" offset="0"/>
   <stop stop-color="#1E62A7" offset=".16"/>
   <stop stop-color="#1485BC" offset=".32"/>
   <stop stop-color="#0BA1CC" offset=".49"/>
   <stop stop-color="#05B4D7" offset=".66"/>
   <stop stop-color="#01C0DE" offset=".83"/>
   <stop stop-color="#00C4E0" offset="1"/>
  </linearGradient>
  <linearGradient id="linearGradient-2" x1="-21606" x2="-13498" y1="53994" y2="53994" gradientTransform="scale(.93633 1.068)" gradientUnits="userSpaceOnUse">
   <stop stop-color="#2B3990" offset="0"/>
   <stop stop-color="#1E62A7" offset=".16"/>
   <stop stop-color="#1485BC" offset=".32"/>
   <stop stop-color="#0BA1CC" offset=".49"/>
   <stop stop-color="#05B4D7" offset=".66"/>
   <stop stop-color="#01C0DE" offset=".83"/>
   <stop stop-color="#00C4E0" offset="1"/>
  </linearGradient>
 </defs>
 <g transform="translate(-746,-12)" fill="none" fill-rule="evenodd">
  <g transform="translate(734,12)">
   <path id="Shape" d="m12 119.4c54.064 5.3591 97.476-26.619 108.3-40.322 10.829-13.703-5.5906-79.079-5.5906-79.079-17.799 43.726-50.161 110-102.71 119.42z" fill="url(#linearGradient-1)" style="mix-blend-mode:multiply"/>
   <path d="m37 101.95c31.891 1.174 56.165-18.88 62.017-27.193 5.8516-8.3135-3.1075-45.757-3.1075-45.757-8.8627 25.938-33.522 63.735-58.909 72.951z" fill="url(#linearGradient-2)" style="mix-blend-mode:multiply"/>
   <g fill="#149cb5" fill-rule="nonzero">
    <g stroke-width="1.516">
     <path d="m142.67 69.915c1.4952 1.5515 3.2733 2.8135 5.2421 3.7204 1.9538 0.92527 4.0942 1.4069 6.263 1.4092 2.295 0.13826 4.567-0.51567 6.4236-1.8489 1.5016-1.1685 2.3523-2.9662 2.2941-4.8478 0.0274-0.91554-0.15696-1.8253-0.53912-2.6606-0.35034-0.71513-0.84613-1.3521-1.4568-1.8715-0.66851-0.55657-1.4044-1.0299-2.1909-1.4092l-2.7071-1.3078-5.9762-2.5592c-1.0234-0.4414-2.0193-0.94208-2.9824-1.4994-1.008-0.57526-1.9272-1.2889-2.73-2.1195-0.82948-0.86698-1.4973-1.8706-1.973-2.965-1.0907-2.67-1.0118-5.664 0.21794-8.275 0.65325-1.3322 1.5832-2.515 2.73-3.4724 1.2206-0.99928 2.6214-1.7642 4.1294-2.2548 1.689-0.55627 3.4609-0.83064 5.2421-0.81172 2.3699-0.01546 4.716 0.46488 6.8824 1.4092 2.0197 0.87077 3.853 2.1103 5.4027 3.6527l-2.8562 3.3822c-1.2335-1.18-2.6655-2.1412-4.2326-2.841-1.6528-0.70598-3.4402-1.0558-5.2421-1.0259-2.0048-0.09869-3.986 0.46054-5.6321 1.5896-1.4095 1.0319-2.2083 2.6823-2.1335 4.4081-0.0273 0.87973 0.18244 1.7509 0.60795 2.5253 0.43227 0.69051 0.99719 1.2917 1.6632 1.77 0.69297 0.53065 1.4385 0.99145 2.2253 1.3754 0.80294 0.39834 1.6288 0.77414 2.4777 1.1274l5.9188 2.5028c1.1661 0.48766 2.2933 1.0605 3.3724 1.7136 1.0179 0.6155 1.9378 1.3753 2.73 2.2548 0.78196 0.88488 1.3958 1.9006 1.8124 2.9989 0.46643 1.2718 0.69191 2.6168 0.6653 3.9684 3e-3 1.5553-0.3328 3.0932-0.98647 4.5095-0.66356 1.4246-1.6296 2.6931-2.8332 3.7204-1.3062 1.1074-2.8173 1.9572-4.4506 2.5028-1.9028 0.62789-3.9004 0.93288-5.9074 0.90191-5.5172 0.0457-10.809-2.1489-14.625-6.0654z"/>
     <path d="m173.31 81.463v10.255h-4.9852v-43.208h4.1306l0.42731 3.4973h0.18627c1.3414-1.1739 2.8124-2.1812 4.3826-3.0009 1.5486-0.82133 3.2652-1.2506 5.0072-1.2523 1.7416-0.02517 3.4657 0.36079 5.04 1.1281 1.4466 0.71797 2.6995 1.7911 3.6485 3.125 1.0156 1.4718 1.7585 3.1241 2.1913 4.8736 0.52866 2.0917 0.78291 4.2468 0.756 6.4079 0.0379 2.3485-0.31032 4.6867-1.0299 6.9156-0.61236 1.8823-1.5598 3.6306-2.7939 5.1557-1.11 1.3652-2.4977 2.4628-4.0649 3.2152-1.5186 0.73613-3.1753 1.1212-4.8538 1.1282-1.415-9e-3 -2.812-0.32806-4.0978-0.93637-1.4575-0.6876-2.8326-1.547-4.0978-2.5609zm0-9.3185c1.1476 1.0496 2.4637 1.8856 3.8896 2.4707 1.047 0.4343 2.159 0.67858 3.287 0.72201 1.1756 0.0106 2.3353-0.28031 3.3746-0.84612 1.0513-0.57984 1.9644-1.3929 2.6734-2.3804 0.8051-1.1396 1.4028-2.4201 1.764-3.7793 0.44393-1.6489 0.65791-3.3545 0.63548-5.0654 9e-3 -1.5153-0.13462-3.0275-0.42731-4.5126-0.2365-1.2553-0.70117-2.4534-1.3696-3.5311-0.61301-0.95126-1.4497-1.7274-2.4324-2.2563-1.1006-0.56674-2.3198-0.84571-3.55-0.81227-1.33 0.02107-2.6335 0.38574-3.791 1.0605-1.4751 0.85863-2.85 1.8882-4.0978 3.0686z"/>
     <path d="m199.4 42.125c-0.9944 0.02593-1.9613-0.30321-2.6992-0.91865-0.69847-0.61036-1.0941-1.4589-1.0941-2.3464 0-0.88758 0.39565-1.7361 1.0941-2.3464 1.5658-1.1849 3.8207-1.1849 5.3865 0 0.70169 0.60871 1.0996 1.4578 1.0996 2.3464 0 0.8886-0.39791 1.7377-1.0996 2.3464-0.73429 0.61376-1.6968 0.94278-2.6872 0.91865zm-2.7952 6.1317h5.4585v29.817h-5.4585z"/>
     <path d="m206.22 48.481h4.2628l0.43634 4.262h0.19021c1.3692-1.359 2.8978-2.5537 4.5537-3.559 1.6912-0.98237 3.6299-1.4773 5.5943-1.428 3.185 0 5.5122 0.97397 6.9816 2.9219 1.4694 1.948 2.2153 4.8296 2.2377 8.6449v18.751h-5.0908v-18.081c0-2.7974-0.45499-4.8149-1.365-6.0525-1.0368-1.2964-2.6682-1.9939-4.3412-1.8564-1.4695-0.02774-2.9142 0.37369-4.1509 1.1534-1.4771 0.99833-2.8489 2.1391-4.095 3.4052v21.431h-5.0908z"/>
     <path d="m233.51 48.481h4.2259l0.43715 4.262h0.19057c1.3717-1.359 2.9032-2.5537 4.5621-3.559 1.694-0.98293 3.6366-1.4779 5.6046-1.428 3.1909 0 5.5224 0.97397 6.9945 2.9219 1.4721 1.9479 2.2194 4.8296 2.2418 8.6449v18.751h-5.2011v-18.081c0-2.7974-0.45583-4.8149-1.3675-6.0525-1.0388-1.2964-2.6731-1.9939-4.3492-1.8564-1.4722-0.02774-2.9196 0.37369-4.1586 1.1534-1.4798 0.99833-2.8542 2.1391-4.1026 3.4052v21.431h-5.0778z"/>
     <path d="m260.81 70.967c-0.0756-3.1985 1.6992-6.1624 4.5795-7.6477 3.053-1.7721 7.8653-3.011 14.437-3.7168 7.4e-4 -0.94193-0.0952-1.8815-0.28621-2.8045-0.17435-0.8688-0.52055-1.6954-1.019-2.4328-0.49732-0.71397-1.1606-1.3009-1.9348-1.712-0.96551-0.47237-2.0367-0.69708-3.1141-0.65326-1.7357-0.01622-3.4555 0.32524-5.0489 1.0024-1.455 0.61908-2.8466 1.3734-4.1559 2.2526l-2.0951-3.5591c1.6729-1.0361 3.4352-1.9256 5.2664-2.6581 2.1794-0.87574 4.5153-1.3124 6.8693-1.284 3.7628 0 6.4915 1.1263 8.1859 3.3789 1.814 2.68 2.705 5.8623 2.5416 9.0781v18.618h-4.3162l-0.4465-3.6155h-0.12599c-1.4732 1.2011-3.0784 2.2363-4.7856 3.0861-1.6793 0.84657-3.5398 1.2868-5.4267 1.284-2.3791 0.0843-4.7024-0.72055-6.5029-2.2526-1.7927-1.6319-2.7537-3.9644-2.6218-6.3637zm5.1405-0.37169c-0.14296 1.4266 0.43979 2.8305 1.557 3.7506 1.1203 0.77506 2.4665 1.1704 3.8354 1.1263 1.4734 1e-3 2.9244-0.35452 4.2246-1.0362 1.5338-0.82856 2.9535-1.8468 4.2246-3.0298v-8.4248c-2.2016 0.26217-4.3848 0.65713-6.5373 1.1826-1.4946 0.34977-2.9347 0.89527-4.2818 1.6219-0.94172 0.50727-1.7314 1.2491-2.2898 2.1513-0.47784 0.80713-0.73059 1.7241-0.73272 2.6581z"/>
    </g>
    <polygon transform="matrix(1.516 0 0 1.516 139.52 -153.88)" points="100.45 147.77 100.45 152.98 97.045 152.98 97 124 100.4 124 100.4 143.64 100.53 143.64 109.23 133.21 113.02 133.21 106.2 141.15 114 153 110.21 153 104.24 143.45"/>
    <path d="m307.8 63.8c-0.0521-2.3012 0.33112-4.5915 1.1296-6.7515 0.69902-1.8501 1.7414-3.5526 3.0726-5.0186 1.2191-1.3343 2.699-2.4065 4.349-3.1507 1.5906-0.73154 3.32-1.1152 5.072-1.1252 1.7719-0.02714 3.5301 0.31399 5.1623 1.0015 1.4854 0.63734 2.795 1.6215 3.8181 2.8694 1.0687 1.3344 1.8667 2.8631 2.3496 4.501 0.56452 1.9025 0.83869 3.8788 0.81333 5.8625 0.0106 0.93755-0.0532 1.8745-0.19204 2.8019h-20.469c0.0447 2.8775 1.1228 5.6439 3.0386 7.798 1.8463 1.9264 4.4335 2.9712 7.1053 2.8694 1.3756 0.0155 2.7436-0.20529 4.044-0.65264 1.2382-0.4388 2.4239-1.0124 3.5357-1.7104l1.8187 3.3757c-1.4102 0.86742-2.9006 1.5984-4.4507 2.183-1.783 0.64918-3.6708 0.96578-5.569 0.93396-1.9648 5e-3 -3.9112-0.37795-5.7271-1.1253-1.7444-0.70719-3.3217-1.7687-4.6314-3.1169-1.3607-1.4265-2.414-3.1153-3.0951-4.9623-0.78848-2.1053-1.1866-4.3357-1.1748-6.5827zm21.293-2.3068c0-3.1207-0.65893-5.5025-1.9768-7.1453-1.3462-1.6585-3.4082-2.5747-5.5464-2.4643-1.0665-0.0045-2.1216 0.21869-3.0951 0.65264-1.0002 0.44734-1.9052 1.0814-2.6659 1.8679-0.83478 0.87078-1.5045 1.8848-1.9768 2.9932-0.54996 1.3013-0.89663 2.6788-1.028 4.0846z" stroke-width="1.516"/>
    <path d="m335.1 48.436h4.228l0.43738 5.3687h0.19065c0.92086-1.7111 2.2014-3.211 3.757-4.4005 1.3725-1.0665 3.0715-1.6479 4.8224-1.6502 1.1076-0.01865 2.2072 0.18729 3.2299 0.60507l-0.99812 4.4005c-0.44832-0.14751-0.9052-0.26878-1.3682-0.36305-0.5145-0.08899-1.0365-0.12962-1.5589-0.12098-1.473 0.06443-2.8835 0.60173-4.0149 1.5292-1.6736 1.4163-2.9285 3.2477-3.6336 5.3027v18.966h-5.1028z" stroke-width="1.516"/>
   </g>
  </g>
 </g>
</svg>
