<?xml version="1.0" encoding="UTF-8"?>
<!-- Created with Inkscape (http://www.inkscape.org/) -->
<svg width="10.035mm" height="7.8989mm" version="1.1" viewBox="0 0 10.03487 7.8989201" xmlns="http://www.w3.org/2000/svg" xmlns:cc="http://creativecommons.org/ns#" xmlns:dc="http://purl.org/dc/elements/1.1/" xmlns:rdf="http://www.w3.org/1999/02/22-rdf-syntax-ns#">
 <metadata>
  <rdf:RDF>
   <cc:Work rdf:about="">
    <dc:format>image/svg+xml</dc:format>
    <dc:type rdf:resource="http://purl.org/dc/dcmitype/StillImage"/>
    <dc:title/>
   </cc:Work>
  </rdf:RDF>
 </metadata>
 <g transform="translate(-127.27 -134.3)" fill="#00abee">
  <path d="m136.6 141.66h-8.6265c-0.0923 0-0.16812-0.0758-0.16812-0.16812v-4.921h8.9614v4.9196c0 0.0937-0.0744 0.1695-0.16675 0.1695m-2.774-6.1612v0.14607c0 0.18742-0.1502 0.339-0.33486 0.339h-0.14469c-0.18604 0-0.33625-0.15158-0.33625-0.339v-0.14607c0-0.18604 0.15021-0.33762 0.33625-0.33762h0.14469c0.18466 0 0.33486 0.15158 0.33486 0.33762m1.2196 0v0.14607c0 0.18742-0.15021 0.339-0.33624 0.339h-0.1447c-0.18465 0-0.33486-0.15158-0.33486-0.339v-0.14607c0-0.18604 0.15021-0.33762 0.33486-0.33762h0.1447c0.18603 0 0.33624 0.15158 0.33624 0.33762m1.2182 0v0.14607c0 0.18742-0.1502 0.339-0.33486 0.339h-0.14469c-0.18604 0-0.33624-0.15158-0.33624-0.339v-0.14607c0-0.18604 0.1502-0.33762 0.33624-0.33762h0.14469c0.18466 0 0.33486 0.15158 0.33486 0.33762m0.13643-1.1961h-8.2269c-0.49885 0-0.90399 0.40928-0.90399 0.91089v6.2783c0 0.39136 0.31557 0.70969 0.70418 0.70969h8.6265c0.38861 0 0.70418-0.31833 0.70418-0.71107v-6.277c0-0.50161-0.40652-0.91089-0.90399-0.91089"/>
  <path d="m135.12 138.27c-0.19154 0-0.34588-0.1571-0.34588-0.35003 0-0.19292 0.15434-0.35001 0.34588-0.35001 0.19155 0 0.34727 0.15709 0.34727 0.35001 0 0.19293-0.15572 0.35003-0.34727 0.35003m-2.22 2.2421c-0.19155 0-0.34727-0.15848-0.34727-0.3514 0-0.19293 0.15572-0.35002 0.34727-0.35002 0.19154 0 0.34726 0.15709 0.34726 0.35002 0 0.19292-0.15572 0.3514-0.34726 0.3514m-1.6523-1.6674c-0.19155 0-0.34727-0.1571-0.34727-0.35002 0-0.19293 0.15572-0.35002 0.34727-0.35002 0.19154 0 0.34864 0.15709 0.34864 0.35002 0 0.19292-0.1571 0.35002-0.34864 0.35002m-1.779 1.7956c-0.19155 0-0.34727-0.15709-0.34727-0.35002 0-0.19292 0.15572-0.35002 0.34727-0.35002s0.34727 0.1571 0.34727 0.35002c0 0.19293-0.15572 0.35002-0.34727 0.35002m5.6513-3.4975c-0.42443 0-0.77032 0.34865-0.77032 0.77721 0 0.13781 0.0358 0.26597 0.0978 0.37759l-1.1727 1.1837c-0.11162-0.062-0.2384-0.0978-0.37482-0.0978-0.13643 0-0.26321 0.0358-0.37345 0.0978l-0.60496-0.60909c0.062-0.11162 0.0978-0.24116 0.0978-0.37758 0-0.42857-0.34589-0.77859-0.7717-0.77859-0.42444 0-0.77033 0.35002-0.77033 0.77859 0 0.13642 0.0358 0.26596 0.0978 0.37758l-0.73311 0.73863c-0.11024-0.0634-0.23703-0.0978-0.37345-0.0978-0.42444 0-0.77032 0.34864-0.77032 0.77721s0.34588 0.77859 0.77032 0.77859c0.42581 0 0.77032-0.35002 0.77032-0.77859 0-0.13643-0.0345-0.26596-0.0965-0.37758l0.73174-0.73863c0.11024 0.062 0.2384 0.0978 0.37345 0.0978 0.13642 0 0.26458-0.0358 0.37482-0.0978l0.60358 0.60909c-0.062 0.11162-0.0965 0.24116-0.0965 0.37759 0 0.42857 0.34589 0.77721 0.77033 0.77721 0.42443 0 0.77032-0.34864 0.77032-0.77721 0-0.13643-0.0358-0.26597-0.0965-0.37759l1.1727-1.1837c0.11162 0.062 0.2384 0.0992 0.37344 0.0992 0.42444 0 0.7717-0.35002 0.7717-0.77859s-0.34726-0.77722-0.7717-0.77722"/>
 </g>
</svg>
