<?xml version="1.0" encoding="UTF-8"?>
<svg width="1225.7" height="697.52" version="1.1" viewBox="0 0 1225.7 697.52" xml:space="preserve" xmlns="http://www.w3.org/2000/svg" xmlns:cc="http://creativecommons.org/ns#" xmlns:dc="http://purl.org/dc/elements/1.1/" xmlns:rdf="http://www.w3.org/1999/02/22-rdf-syntax-ns#"><metadata><rdf:RDF><cc:Work rdf:about=""><dc:format>image/svg+xml</dc:format><dc:type rdf:resource="http://purl.org/dc/dcmitype/StillImage"/><dc:title/></cc:Work></rdf:RDF></metadata><defs><clipPath id="clipPath120"><path d="M 0,841.89 H 595.276 V 0 H 0 Z"/></clipPath></defs><g transform="matrix(1.3333 0 0 -1.3333 0 1122.5)"><g transform="translate(527.15 633.33)"><path d="m0 0 3.417 31.831 17.86 18.759-21.906 96.219 10.514 26.543-8.661 26.063-21.517-87.495-48.771 2.327-48.771-2.327-21.517 87.495-8.661-26.063 10.514-26.543-21.906-96.219 17.884-18.806 3.393-31.784 5.884-13.773-16.314-125h158.98l-16.305 125z" fill="#fff"/></g><g transform="translate(411.22 585.67)"><path d="m0 0 5.819 16.112-4.153 24.889 29.906 48.535h30.593l19.321-42.522-7.575-30.902 10.158-16-5.046-7.422-32.161 19.79-31.734-23.262z" fill="#c2611d"/></g><g transform="translate(458.08 675.2)"><path d="m0 0 15.303 6e-3 19.322-42.521-7.576-30.902 10.159-16-5.047-7.422-32.161 19.79z" fill="#994d17"/></g><g transform="translate(403.57 708.91)"><path d="m0 0 9.225 22.119 30.011 6.36 15.267-9.875 15.267 9.875 30.01-6.36-2.613-10.852 11.832-11.25-43.803-11.351 13.202-63.052h-47.791l13.202 63.052z" fill="#595959"/></g><g transform="translate(394.28 686.09)"><path d="m0 0 19.994-20.51 28.518 9.634-23.623-38.341-28.287 40.975z" fill="#4c4c4c"/></g><g transform="translate(500.96 652.13)"><path d="m0 0 20.936 34.378-20.002-20.928-21.004 7.092z" fill="#4c4c4c"/></g><g transform="translate(521.58 711.98)"><path d="m0 0 5.564 1.883-9.046 45.02 17.137-50.456-3.99-6.552z" fill="#994d17"/></g><g transform="translate(398.08 758.85)"><path d="m0 0 5.497-13.876-14.557-31.11 9.734-3.293-15.084-22.284-6.426 9.308z" fill="#c2611d"/></g><g transform="translate(393.64 494.54)"><path d="m0 0 15.472 80.198 92.01-5.657 26.016-74.541z" fill="#404040"/></g><g transform="translate(458.08 584.12)"><path d="m0 0 17.357-14.123-7.784-4.415-9.573 4.324-9.573-4.324-7.822 4.384z" fill="#994d17"/></g><g transform="translate(160.14 160.68)"><g clip-path="url(#clipPath120)"><g transform="translate(343.48 523.81)"><path d="m0 0c0-3.836-3.11-6.946-6.946-6.946s-6.946 3.11-6.946 6.946 3.11 6.946 6.946 6.946 6.946-3.11 6.946-6.946" fill="#e62e2e"/></g><g transform="translate(254.13 504.89)"><path d="m0 0 14.68 36.769-6.587 1.711-17.614-28.706z" fill="#ccc"/></g><g transform="translate(236.6 492.74)"><path d="m0 0 12.874-13.538-9.546-11.196-3.295 5.223z" fill="#c2611d"/></g><g transform="translate(359.28 492.77)"><path d="m0 0-0.033-19.546-5.927-6.969z" fill="#994d17"/></g><g transform="translate(287.24 536.89)"><path d="m0 0-6.636 9.317-11.798-4.548z" fill="#c2611d"/></g><g transform="translate(274.05 462.18)"><path d="m0 0 7.938-35.221 10.173 8.213-2.957 12.414z" fill="#994d17"/></g><g transform="translate(268.73 562.88)"><path d="m0 0 23.857-11.017-5.347-14.97z" fill="#4c4c4c"/></g><g transform="translate(308.63 536.89)"><path d="m0 0 6.636 9.317 11.798-4.548z" fill="#c2611d"/></g><g transform="translate(327.14 562.88)"><path d="m0 0-23.856-11.017 5.346-14.97z" fill="#4c4c4c"/></g><g transform="translate(320.19 481.68)"><path d="m0 0-22.254 7.836-22.255-7.836-1.641-7.835 23.896 4.884 23.895-4.884z" fill="#757575"/></g><g transform="translate(343.48 523.82)"><path d="m0 0c0-3.836-3.109-6.946-6.945-6.946s-6.946 3.11-6.946 6.946 3.11 6.945 6.946 6.945 6.945-3.109 6.945-6.945m-74.668 17.853 18.433-4.77-4.603-22.371-14.671-23.812-2.518 2.883 6.142 17.199-17.463-5.897-1e-3 1e-3 1e-3 -1e-3zm90.433-68.443-5.928-6.969 5.96 26.515zm-18.435 18.225-20.071 20.543 21.005-7.093 20.002 20.929zm-10.712-73.758-26.724 17.477 3.305 12.414 15.154 14.594v11.672l-23.895 4.884-23.895-4.884v-11.672l15.154-14.594 2.958-12.414-25.949-20.95-15.128 10.783 5.819 16.111-4.153 24.888 6.275 10.186-28.288 40.975 3.399 8.242 10.474-10.736 17.613 28.706-18.685 4.834 9.13 22.143 30.01 6.359 15.266-9.874 15.266 9.874 30.01-6.359-2.614-10.852 11.815-11.254-43.784-11.347 4.603-22.371 19.328-42.514-7.576-30.9 10.158-16zm-22.587-12.795-9.573 4.324-9.573-4.324-7.822 4.384 17.395 14.154 17.357-14.123zm-67.584 63.105-3.296 5.223-0.032 19.511 12.874-13.538zm-16.403 59.601-6.426 9.308 20.836 61.255 5.497-13.876-14.557-31.11 9.734-3.293zm151.57 20.142-3.99-6.553-9.665 10.105 5.564 1.883-9.047 45.02zm-8.091-75.101 3.417 31.83 17.86 18.759-21.906 96.219 10.514 26.543-8.661 26.063-21.517-87.494-48.771 2.327-48.771-2.327-21.517 87.494-8.661-26.063 10.514-26.543-21.906-96.219 17.883-18.806 3.394-31.783 5.884-13.773-16.314-125h15.061l15.463 80.185 17.238-16.445 9.724-29.059h6.864l-2.298 29.059h34.884l-2.299-29.059h6.865l9.724 29.059 11.308 10.787 26.019-74.527h10.426l-16.305 124.99z" fill="#292929"/></g><g transform="translate(266.2 397.6)"><path d="m0 0 9.724-29.06h6.865l-2.299 29.06z" fill="#994d17"/></g><g transform="translate(329.67 397.6)"><path d="m0 0-9.725-29.06h-6.864l2.298 29.06z" fill="#994d17"/></g><g transform="translate(234.13 525.4)"><path d="m0 0 9.402 22.804 43.706-11.315-41.584 7.387z" fill="#fff"/></g><g transform="translate(313.24 514.53)"><path d="m0 0-4.609 22.366 43.802 11.351-39.568-13.809z" fill="#fff"/></g><g transform="translate(489.51 292.54)"><path d="m0 0-75.276 75.276c-10.832 10.831-28.458 10.831-39.29 0l-12.093-12.092-12.092 12.092c-10.832 10.832-28.458 10.831-39.29 0l-8.619-8.62-8.619 8.62c-10.833 10.831-28.458 10.831-39.291 0l-17.301-17.302-17.301 17.302c-10.833 10.832-28.458 10.832-39.29 0l-75.276-75.276c-5.248-5.248-8.138-12.225-8.138-19.646s2.89-14.398 8.138-19.645l75.276-75.275c5.247-5.248 12.224-8.138 19.645-8.138s14.397 2.89 19.645 8.137l17.301 17.301 17.301-17.301c5.417-5.416 12.531-8.124 19.646-8.124 7.114 0 14.228 2.708 19.645 8.124l8.619 8.619 8.619-8.618c5.248-5.248 12.224-8.138 19.645-8.138s14.398 2.89 19.646 8.137l12.091 12.091 12.093-12.091c5.416-5.416 12.53-8.124 19.645-8.124 7.114 0 14.229 2.708 19.645 8.124l75.276 75.276c10.832 10.832 10.833 28.458 0 39.291" fill="#292929"/></g><g transform="translate(273.94 186.14)"><path d="m0 0c-3.803 0-7.378 1.481-10.068 4.17l-7.115 7.115c-2.686 2.687-4.166 6.262-4.166 10.069 0 3.804 1.48 7.38 4.167 10.067l7.114 7.114c2.689 2.69 6.264 4.17 10.068 4.17s7.379-1.48 10.068-4.17l7.115-7.114c2.687-2.687 4.166-6.263 4.166-10.067 1e-3 -3.807-1.479-7.382-4.167-10.07l-7.114-7.113c-2.689-2.69-6.265-4.171-10.068-4.171" fill="#fff"/></g><g transform="translate(332.37 186.14)"><path d="m0 0c-3.803 0-7.378 1.48-10.068 4.17l-7.115 7.115c-2.687 2.687-4.167 6.262-4.167 10.069 0 3.804 1.48 7.38 4.168 10.067l7.114 7.114c2.688 2.689 6.264 4.17 10.068 4.17 3.803 0 7.379-1.48 10.068-4.17l7.115-7.114c5.551-5.552 5.551-14.585 0-20.137l-7.115-7.113c-2.69-2.691-6.265-4.171-10.068-4.171" fill="#fff"/></g><g transform="translate(459.64 248.04)"><path d="m0 0c-3.804 0-7.379 1.481-10.068 4.172l-36.329 36.328c-2.687 2.688-4.167 6.263-4.167 10.068 0 3.806 1.48 7.382 4.167 10.069l7.114 7.114c2.688 2.688 6.264 4.17 10.068 4.17 3.803 0 7.379-1.481 10.069-4.17l36.329-36.329c2.689-2.69 4.17-6.266 4.17-10.068 0-3.804-1.481-7.38-4.171-10.069l-7.114-7.114c-2.69-2.69-6.265-4.171-10.068-4.171" fill="#fff"/></g><g transform="translate(397.74 186.14)"><path d="m0 0c-3.804 0-7.38 1.481-10.068 4.171l-7.115 7.113c-2.687 2.688-4.167 6.264-4.167 10.07 0 3.804 1.481 7.38 4.168 10.067l36.329 36.329c2.688 2.689 6.264 4.17 10.068 4.17s7.379-1.481 10.068-4.17l7.114-7.114c5.552-5.552 5.552-14.584 0-20.136l-36.329-36.329c-2.689-2.69-6.265-4.171-10.068-4.171" fill="#fff"/></g><g transform="translate(136.24 251.52)"><path d="m0 0c-3.803 0-7.379 1.481-10.068 4.17l-7.114 7.114c-5.552 5.552-5.552 14.585 0 20.137l7.114 7.114c2.689 2.689 6.264 4.17 10.068 4.17s7.379-1.481 10.069-4.171l7.114-7.113c5.551-5.552 5.551-14.585 0-20.137l-7.115-7.114c-2.689-2.689-6.264-4.17-10.068-4.17" fill="#fff"/></g><g transform="translate(390.8 244.15)"><path d="m0 0c-3.803 0-7.379 1.481-10.068 4.171l-14.481 14.48c-2.687 2.688-4.167 6.263-4.167 10.069 0 3.805 1.48 7.381 4.167 10.068l14.481 14.481c2.689 2.689 6.264 4.17 10.068 4.17s7.379-1.481 10.068-4.17l14.481-14.481c2.69-2.69 4.171-6.266 4.171-10.068 0-3.804-1.481-7.379-4.171-10.069l-14.481-14.48c-2.689-2.69-6.265-4.171-10.068-4.171" fill="#fff"/></g><g transform="translate(390.8 302.58)"><path d="m0 0c-3.803 0-7.379 1.481-10.068 4.171l-14.481 14.48c-2.687 2.687-4.167 6.263-4.167 10.069 0 3.805 1.48 7.381 4.167 10.068l16.936 16.936c2.035 2.034 4.738 3.153 7.613 3.153s5.579-1.119 7.613-3.152l16.936-16.937c2.69-2.691 4.171-6.266 4.171-10.069s-1.481-7.378-4.171-10.068l-14.481-14.481c-2.689-2.689-6.265-4.17-10.068-4.17" fill="#fff"/></g><g transform="translate(303.15 214.94)"><path d="m0 0c-3.803 0-7.379 1.481-10.068 4.171l-43.696 43.695c-2.689 2.69-4.17 6.265-4.17 10.069 0 3.802 1.481 7.378 4.17 10.068l14.481 14.48c2.689 2.69 6.264 4.171 10.068 4.171s7.38-1.481 10.069-4.171l43.695-43.695c2.69-2.689 4.171-6.266 4.171-10.068 0-3.804-1.481-7.379-4.171-10.069l-14.481-14.481c-2.689-2.689-6.264-4.17-10.068-4.17" fill="#fff"/></g><g transform="translate(303.15 273.37)"><path d="m0 0c-3.803 0-7.379 1.481-10.068 4.171l-43.696 43.696c-5.551 5.551-5.551 14.584 0 20.136l16.937 16.937c2.034 2.033 4.737 3.153 7.612 3.153s5.579-1.12 7.612-3.153l46.152-46.152c5.552-5.552 5.552-14.585 0-20.137l-14.481-14.48c-2.689-2.69-6.264-4.171-10.068-4.171" fill="#fff"/></g><g transform="translate(361.58 214.94)"><path d="m0 0c-3.804 0-7.379 1.481-10.068 4.171l-43.696 43.695c-2.689 2.69-4.171 6.265-4.171 10.069 0 3.802 1.481 7.378 4.17 10.068l14.482 14.48c2.688 2.69 6.264 4.171 10.068 4.171 3.803 0 7.379-1.481 10.069-4.171l43.695-43.695c2.689-2.689 4.17-6.266 4.17-10.068 0-3.804-1.481-7.379-4.17-10.069l-14.481-14.481c-2.69-2.69-6.265-4.17-10.068-4.17" fill="#fff"/></g><g transform="translate(361.58 273.37)"><path d="m0 0c-3.804 0-7.379 1.481-10.068 4.171l-43.696 43.696c-5.552 5.551-5.552 14.584 0 20.136l16.936 16.936c2.035 2.034 4.738 3.154 7.613 3.154 2.876 0 5.579-1.12 7.612-3.153l46.152-46.152c5.552-5.552 5.552-14.585 0-20.137l-14.481-14.48c-2.69-2.69-6.265-4.171-10.068-4.171" fill="#fff"/></g><g transform="translate(172.4 273.37)"><path d="m0 0c-3.803 0-7.379 1.481-10.068 4.171l-14.481 14.48c-2.689 2.69-4.17 6.265-4.17 10.069 0 3.803 1.481 7.38 4.171 10.069l46.151 46.151c2.034 2.033 4.737 3.153 7.612 3.153s5.579-1.12 7.612-3.153l16.938-16.937c2.689-2.689 4.17-6.265 4.17-10.068 0-3.804-1.481-7.379-4.171-10.068l-43.696-43.696c-2.689-2.69-6.265-4.171-10.068-4.171" fill="#fff"/></g><g transform="translate(230.83 273.37)"><path d="m0 0c-3.803 0-7.379 1.481-10.068 4.171l-14.481 14.48c-2.689 2.69-4.171 6.265-4.171 10.069 0 3.803 1.482 7.379 4.171 10.068l14.481 14.481c2.689 2.689 6.265 4.17 10.068 4.17 3.804 0 7.379-1.481 10.068-4.17l14.481-14.481c2.69-2.69 4.171-6.265 4.171-10.068 0-3.804-1.482-7.379-4.171-10.069l-14.481-14.48c-2.689-2.69-6.265-4.171-10.068-4.171" fill="#fff"/></g><g transform="translate(230.83 214.94)"><path d="m0 0c-3.803 0-7.379 1.481-10.068 4.171l-43.696 43.695c-2.69 2.69-4.171 6.265-4.171 10.069 0 3.803 1.481 7.378 4.171 10.068l14.481 14.48c2.689 2.69 6.264 4.171 10.068 4.171 3.803 0 7.379-1.481 10.069-4.171l43.695-43.695c2.689-2.689 4.171-6.265 4.171-10.068 0-3.804-1.482-7.38-4.171-10.069l-14.481-14.481c-2.689-2.69-6.265-4.17-10.068-4.17" fill="#fff"/></g><g transform="translate(201.61 185.72)"><path d="m0 0c-3.804 0-7.379 1.48-10.068 4.17l-43.697 43.696c-2.689 2.689-4.17 6.265-4.17 10.069 0 3.803 1.481 7.378 4.171 10.068l14.481 14.48c2.688 2.69 6.264 4.17 10.068 4.17 3.803 0 7.379-1.48 10.068-4.17l43.696-43.695c2.687-2.687 4.167-6.263 4.167-10.068 0-3.806-1.48-7.382-4.167-10.069l-14.481-14.481c-2.689-2.69-6.264-4.17-10.068-4.17" fill="#fff"/></g><g transform="translate(385.05 203.25)"><path d="m0 0 8.452-8.452c2.343-2.343 6.142-2.343 8.485 0l37.667 37.667c2.343 2.343 2.343 6.142 0 8.485l-8.452 8.451c-2.343 2.344-6.142 2.344-8.485 0l-37.667-37.666c-2.343-2.343-2.343-6.142 0-8.485" fill="#4c4c4c"/></g><g transform="translate(261.24 203.25)"><path d="m0 0 8.452-8.452c2.343-2.343 6.142-2.343 8.485 0l8.452 8.452c2.342 2.343 2.342 6.142 0 8.485l-8.452 8.452c-2.343 2.342-6.142 2.342-8.485 0l-8.452-8.452c-2.343-2.343-2.343-6.142 0-8.485" fill="#4c4c4c"/></g><g transform="translate(319.67 203.25)"><path d="m0 0 8.452-8.452c2.342-2.343 6.142-2.343 8.485 0l8.451 8.452c2.343 2.343 2.343 6.142 0 8.485l-8.451 8.452c-2.343 2.342-6.142 2.342-8.485 0l-8.452-8.452c-2.343-2.343-2.343-6.142 0-8.485" fill="#4c4c4c"/></g><g transform="translate(417.73 294.37)"><path d="m0 0 37.667-37.666c2.343-2.343 6.142-2.343 8.485 0l8.452 8.451c2.343 2.344 2.343 6.143 0 8.486l-37.667 37.666c-2.343 2.343-6.143 2.343-8.485 0l-8.452-8.451c-2.343-2.343-2.343-6.142 0-8.486" fill="#4c4c4c"/></g><g transform="translate(123.54 268.63)"><path d="m0 0 8.451-8.451c2.343-2.343 6.142-2.343 8.486 0l8.451 8.451c2.343 2.344 2.343 6.143 0 8.485l-8.451 8.452c-2.344 2.343-6.143 2.343-8.486 0l-8.451-8.452c-2.343-2.342-2.343-6.141 0-8.485" fill="#4c4c4c"/></g><g transform="translate(370.73 268.63)"><path d="m0 0 15.818-15.817c2.343-2.344 6.142-2.344 8.485 0l15.819 15.817c2.343 2.344 2.343 6.143 0 8.485l-15.819 15.819c-2.343 2.343-6.142 2.343-8.485 0l-15.818-15.819c-2.343-2.342-2.343-6.141 0-8.485" fill="#4c4c4c"/></g><g transform="translate(370.73 327.06)"><path d="m0 0 15.818-15.818c2.343-2.344 6.142-2.344 8.485 0l15.819 15.818c2.343 2.343 2.343 6.142 0 8.485l-15.819 15.818c-2.343 2.343-6.142 2.343-8.485 0l-15.818-15.818c-2.343-2.343-2.343-6.142 0-8.485" fill="#4c4c4c"/></g><g transform="translate(253.87 268.63)"><path d="m0 0 45.033-45.033c2.343-2.343 6.143-2.343 8.486 0l15.818 15.818c2.343 2.344 2.343 6.143 0 8.486l-45.033 45.033c-2.344 2.343-6.142 2.343-8.486 0l-15.818-15.819c-2.343-2.342-2.343-6.141 0-8.485" fill="#4c4c4c"/></g><g transform="translate(253.87 327.06)"><path d="m0 0 45.033-45.033c2.343-2.344 6.143-2.344 8.486 0l15.818 15.818c2.343 2.343 2.343 6.142 0 8.485l-45.033 45.033c-2.344 2.343-6.142 2.343-8.486 0l-15.818-15.818c-2.343-2.343-2.343-6.142 0-8.485" fill="#4c4c4c"/></g><g transform="translate(312.3 268.63)"><path d="m0 0 45.033-45.033c2.343-2.343 6.142-2.343 8.486 0l15.818 15.818c2.343 2.344 2.343 6.143 0 8.486l-45.033 45.033c-2.344 2.343-6.142 2.343-8.486 0l-15.818-15.819c-2.343-2.342-2.343-6.141 0-8.485" fill="#4c4c4c"/></g><g transform="translate(312.3 327.06)"><path d="m0 0 45.033-45.033c2.343-2.344 6.142-2.344 8.486 0l15.818 15.818c2.343 2.343 2.343 6.142 0 8.485l-45.033 45.033c-2.344 2.343-6.142 2.343-8.486 0l-15.818-15.818c-2.343-2.343-2.343-6.142 0-8.485" fill="#4c4c4c"/></g><g transform="translate(152.34 297.84)"><path d="m0 0 15.818-15.818c2.344-2.344 6.142-2.344 8.486 0l45.033 45.032c2.344 2.344 2.344 6.143 0 8.486l-15.818 15.818c-2.343 2.343-6.142 2.343-8.485 0l-45.034-45.033c-2.343-2.343-2.343-6.142 0-8.485" fill="#4c4c4c"/></g><g transform="translate(210.77 297.84)"><path d="m0 0 15.819-15.818c2.343-2.344 6.142-2.344 8.485 0l15.818 15.818c2.343 2.343 2.343 6.142 0 8.485l-15.818 15.818c-2.343 2.343-6.142 2.343-8.485 0l-15.819-15.818c-2.343-2.343-2.343-6.142 0-8.485" fill="#4c4c4c"/></g><g transform="translate(181.55 268.63)"><path d="m0 0 45.034-45.033c2.342-2.343 6.142-2.343 8.485 0l15.818 15.818c2.343 2.344 2.343 6.143 0 8.486l-45.033 45.033c-2.344 2.343-6.142 2.343-8.486 0l-15.818-15.819c-2.343-2.342-2.343-6.141 0-8.485" fill="#4c4c4c"/></g><g transform="translate(152.34 239.41)"><path d="m0 0 45.034-45.033c2.343-2.343 6.142-2.343 8.485 0l15.818 15.818c2.344 2.344 2.344 6.143 0 8.486l-45.033 45.033c-2.344 2.343-6.142 2.343-8.486 0l-15.818-15.819c-2.343-2.342-2.343-6.141 0-8.485" fill="#4c4c4c"/></g><g transform="translate(385.05 208.25)"><path d="m0 0 8.452-8.452c2.343-2.343 6.142-2.343 8.485 0l37.667 37.667c2.343 2.343 2.343 6.142 0 8.485l-8.452 8.451c-2.343 2.344-6.142 2.344-8.485 0l-37.667-37.666c-2.343-2.343-2.343-6.142 0-8.485" fill="#666"/></g><g transform="translate(261.24 208.25)"><path d="m0 0 8.452-8.452c2.343-2.343 6.142-2.343 8.485 0l8.452 8.452c2.342 2.343 2.342 6.142 0 8.485l-8.452 8.452c-2.343 2.342-6.142 2.342-8.485 0l-8.452-8.452c-2.343-2.343-2.343-6.142 0-8.485" fill="#666"/></g><g transform="translate(319.67 208.25)"><path d="m0 0 8.452-8.452c2.342-2.343 6.142-2.343 8.485 0l8.451 8.452c2.343 2.343 2.343 6.142 0 8.485l-8.451 8.452c-2.343 2.342-6.142 2.342-8.485 0l-8.452-8.452c-2.343-2.343-2.343-6.142 0-8.485" fill="#666"/></g><g transform="translate(417.73 299.37)"><path d="m0 0 37.667-37.666c2.343-2.343 6.142-2.343 8.485 0l8.452 8.451c2.343 2.344 2.343 6.143 0 8.486l-37.667 37.666c-2.343 2.343-6.143 2.343-8.485 0l-8.452-8.451c-2.343-2.343-2.343-6.142 0-8.486" fill="#666"/></g><g transform="translate(123.54 273.63)"><path d="m0 0 8.451-8.451c2.343-2.343 6.142-2.343 8.486 0l8.451 8.451c2.343 2.344 2.343 6.143 0 8.485l-8.451 8.452c-2.344 2.343-6.143 2.343-8.486 0l-8.451-8.452c-2.343-2.342-2.343-6.141 0-8.485" fill="#666"/></g><g transform="translate(370.73 273.63)"><path d="m0 0 15.818-15.817c2.343-2.344 6.142-2.344 8.485 0l15.819 15.817c2.343 2.344 2.343 6.143 0 8.485l-15.819 15.819c-2.343 2.343-6.142 2.343-8.485 0l-15.818-15.819c-2.343-2.342-2.343-6.141 0-8.485" fill="#666"/></g><g transform="translate(370.73 332.06)"><path d="m0 0 15.818-15.818c2.343-2.344 6.142-2.344 8.485 0l15.819 15.818c2.343 2.343 2.343 6.142 0 8.485l-15.819 15.818c-2.343 2.343-6.142 2.343-8.485 0l-15.818-15.818c-2.343-2.343-2.343-6.142 0-8.485" fill="#666"/></g><g transform="translate(253.87 273.63)"><path d="m0 0 45.033-45.033c2.343-2.343 6.143-2.343 8.486 0l15.818 15.818c2.343 2.344 2.343 6.143 0 8.486l-45.033 45.033c-2.344 2.343-6.142 2.343-8.486 0l-15.818-15.819c-2.343-2.342-2.343-6.141 0-8.485" fill="#666"/></g><g transform="translate(253.87 332.06)"><path d="m0 0 45.033-45.033c2.343-2.344 6.143-2.344 8.486 0l15.818 15.818c2.343 2.343 2.343 6.142 0 8.485l-45.033 45.033c-2.344 2.343-6.142 2.343-8.486 0l-15.818-15.818c-2.343-2.343-2.343-6.142 0-8.485" fill="#666"/></g><g transform="translate(312.3 273.63)"><path d="m0 0 45.033-45.033c2.343-2.343 6.142-2.343 8.486 0l15.818 15.818c2.343 2.344 2.343 6.143 0 8.486l-45.033 45.033c-2.344 2.343-6.142 2.343-8.486 0l-15.818-15.819c-2.343-2.342-2.343-6.141 0-8.485" fill="#666"/></g><g transform="translate(312.3 332.06)"><path d="m0 0 45.033-45.033c2.343-2.344 6.142-2.344 8.486 0l15.818 15.818c2.343 2.343 2.343 6.142 0 8.485l-45.033 45.033c-2.344 2.343-6.142 2.343-8.486 0l-15.818-15.818c-2.343-2.343-2.343-6.142 0-8.485" fill="#666"/></g><g transform="translate(152.34 302.84)"><path d="m0 0 15.818-15.818c2.344-2.344 6.142-2.344 8.486 0l45.033 45.033c2.344 2.343 2.344 6.142 0 8.485l-15.818 15.819c-2.343 2.343-6.142 2.343-8.485 0l-45.034-45.034c-2.343-2.343-2.343-6.142 0-8.485" fill="#666"/></g><g transform="translate(210.77 302.84)"><path d="m0 0 15.819-15.818c2.343-2.344 6.142-2.344 8.485 0l15.818 15.818c2.343 2.343 2.343 6.142 0 8.485l-15.818 15.819c-2.343 2.343-6.142 2.343-8.485 0l-15.819-15.819c-2.343-2.343-2.343-6.142 0-8.485" fill="#666"/></g><g transform="translate(181.55 273.63)"><path d="m0 0 45.034-45.033c2.342-2.343 6.142-2.343 8.485 0l15.818 15.818c2.343 2.344 2.343 6.143 0 8.486l-45.033 45.033c-2.344 2.343-6.142 2.343-8.486 0l-15.818-15.819c-2.343-2.342-2.343-6.141 0-8.485" fill="#666"/></g><g transform="translate(152.34 244.41)"><path d="m0 0 45.034-45.033c2.343-2.343 6.142-2.343 8.485 0l15.818 15.818c2.344 2.344 2.344 6.143 0 8.486l-45.033 45.033c-2.344 2.343-6.142 2.343-8.486 0l-15.818-15.819c-2.343-2.342-2.343-6.141 0-8.485" fill="#666"/></g></g></g></g></svg>
