<?xml version="1.0" encoding="UTF-8"?>
<!-- Created with Inkscape (http://www.inkscape.org/) -->
<svg width="7.4717mm" height="5.774mm" version="1.1" viewBox="0 0 7.471734 5.7739801" xmlns="http://www.w3.org/2000/svg" xmlns:cc="http://creativecommons.org/ns#" xmlns:dc="http://purl.org/dc/elements/1.1/" xmlns:rdf="http://www.w3.org/1999/02/22-rdf-syntax-ns#">
 <metadata>
  <rdf:RDF>
   <cc:Work rdf:about="">
    <dc:format>image/svg+xml</dc:format>
    <dc:type rdf:resource="http://purl.org/dc/dcmitype/StillImage"/>
    <dc:title/>
   </cc:Work>
  </rdf:RDF>
 </metadata>
 <g transform="translate(-95.294 -102.86)">
  <path d="m97.671 106.5 1.2981 0.5085c0.0386 0.0152 0.0827 0.0152 0.12126 0l1.2981-0.5085v0.68213c-0.0882 0.0923-0.21084 0.14331-0.33487 0.19017-0.25356 0.0896-0.61874 0.15985-1.0239 0.15985s-0.77032-0.0703-1.0239-0.15985c-0.10474-0.0372-0.25494-0.1006-0.33487-0.19017zm1.3588-1.3353 1.9155 0.75379-1.9155 0.75103-1.9155-0.75103zm8e-3 -0.35002c-0.0221-1e-3 -0.0482 1e-3 -0.0689 0.011l-2.3785 0.93293c-0.062 0.0262-0.10611 0.0923-0.10611 0.15985 0 0.0675 0.0441 0.13229 0.10611 0.15709l0.74138 0.29215v0.82407c0 0.14055 0.0868 0.2384 0.18466 0.31419 0.0992 0.0744 0.22462 0.13367 0.37483 0.18741 0.29903 0.10611 0.69591 0.17777 1.1382 0.17777 0.44236 0 0.83923-0.0717 1.1383-0.17777 0.1502-0.0537 0.2756-0.113 0.37482-0.18741 0.0978-0.0758 0.18466-0.17364 0.18466-0.31419v-0.82407l0.34037-0.13643v0.43271c-0.0524 0.0469-0.0854 0.11437-0.0854 0.18879 0 0.13918 0.11575 0.25494 0.25493 0.25494 0.13919 0 0.25494-0.11576 0.25494-0.25494 0-0.0744-0.0331-0.14194-0.0854-0.18879v-0.565l0.062-0.0234c0.062-0.0248 0.10472-0.0896 0.10472-0.1571s-0.0427-0.13367-0.10472-0.15985l-2.3785-0.93293c-0.0124-6e-3 -0.0303-0.01-0.0524-0.011m-3.4051-0.42443h6.7937v3.7359c0 0.0978-0.073 0.16949-0.17088 0.16949h-6.452c-0.0978 0-0.17088-0.0716-0.17088-0.16949zm1.6137-0.93432c-0.0937 0-0.1695 0.0758-0.1695 0.1695s0.0758 0.17088 0.1695 0.17088 0.16949-0.0772 0.16949-0.17088c0-0.0937-0.0758-0.1695-0.16949-0.1695m-0.59394 0c-0.0937 0-0.1695 0.0758-0.1695 0.1695s0.0758 0.17088 0.1695 0.17088 0.1695-0.0772 0.1695-0.17088c0-0.0937-0.0758-0.1695-0.1695-0.1695m-0.59531 0c-0.0937 0-0.1695 0.0758-0.1695 0.1695s0.0758 0.17088 0.1695 0.17088 0.17087-0.0772 0.17087-0.17088c0-0.0937-0.0772-0.1695-0.17087-0.1695m2.0491-0.25493h4.1493c0.0978 0 0.17088 0.073 0.17088 0.17087v0.67938h-3.6546zm-2.3027 0h1.8728l0.66559 0.85025h-2.7092v-0.67938c0-0.0978 0.073-0.17087 0.17088-0.17087m0-0.339c-0.27975 0-0.50988 0.23013-0.50988 0.50987v4.7542c0 0.27974 0.23013 0.50987 0.50988 0.50987h6.452c0.27974 0 0.50988-0.23013 0.50988-0.50987v-4.7542c0-0.27974-0.23014-0.50987-0.50988-0.50987z" fill="#00abee"/>
 </g>
</svg>
